<svg xmlns="http://www.w3.org/2000/svg" viewBox="487.293 487.247 105.2 104.3">
  <path d="M 574.828125 488.707031 L 574.824219 488.707031 L 574.824219 488.710938 L 574.820312 488.710938 L 574.816406 488.714844 C 574.808594 488.703125 574.796875 488.691406 574.789062 488.683594 C 574.683594 488.574219 574.535156 488.519531 574.382812 488.515625 C 574.214844 488.515625 574.054688 488.582031 573.933594 488.699219 L 572.816406 489.800781 C 572.699219 489.917969 572.628906 490.078125 572.628906 490.246094 C 572.628906 490.414062 572.695312 490.574219 572.8125 490.691406 L 574.746094 492.65625 L 574.753906 492.660156 C 574.757812 492.652344 574.761719 492.648438 574.769531 492.644531 L 574.777344 492.648438 L 574.863281 492.527344 C 575.4375 491.832031 575.972656 491.121094 576.484375 490.394531 L 576.492188 490.402344 Z M 589.3125 503.402344 L 589.304688 503.398438 L 589.300781 503.402344 L 589.296875 503.402344 C 588.542969 503.90625 587.792969 504.441406 587.054688 505.019531 L 586.984375 505.066406 L 588.667969 506.773438 C 588.914062 507.023438 589.3125 507.023438 589.5625 506.78125 L 590.675781 505.683594 C 590.925781 505.4375 590.925781 505.039062 590.683594 504.789062 Z M 571.328125 492.152344 L 571.328125 492.15625 L 571.324219 492.15625 L 571.324219 492.160156 L 571.320312 492.160156 L 571.320312 492.164062 C 571.308594 492.152344 571.300781 492.140625 571.289062 492.132812 C 571.183594 492.023438 571.035156 491.96875 570.882812 491.964844 C 570.714844 491.964844 570.554688 492.03125 570.4375 492.148438 L 569.320312 493.25 C 569.199219 493.367188 569.132812 493.527344 569.132812 493.695312 C 569.128906 493.863281 569.195312 494.023438 569.3125 494.140625 L 571.375 496.230469 L 571.375 496.234375 L 571.378906 496.238281 C 572.058594 495.582031 572.726562 494.910156 573.363281 494.226562 L 573.371094 494.234375 Z M 585.394531 506.425781 L 585.386719 506.417969 L 585.375 506.429688 C 584.6875 507.039062 583.996094 507.691406 583.324219 508.347656 L 583.320312 508.351562 L 585.171875 510.222656 C 585.417969 510.472656 585.816406 510.472656 586.0625 510.230469 L 587.175781 509.132812 C 587.425781 508.886719 587.429688 508.488281 587.183594 508.238281 Z M 581.898438 509.789062 L 581.886719 509.785156 L 581.878906 509.792969 C 581.210938 510.472656 580.5625 511.148438 579.925781 511.816406 L 579.921875 511.820312 L 581.714844 513.632812 C 581.960938 513.878906 582.359375 513.882812 582.605469 513.636719 L 583.71875 512.539062 C 583.96875 512.296875 583.972656 511.894531 583.726562 511.648438 Z M 567.871094 495.5625 L 567.863281 495.570312 C 567.851562 495.5625 567.84375 495.550781 567.832031 495.539062 C 567.726562 495.433594 567.582031 495.375 567.425781 495.375 C 567.257812 495.371094 567.097656 495.4375 566.980469 495.554688 L 565.863281 496.65625 C 565.742188 496.773438 565.675781 496.933594 565.675781 497.101562 C 565.671875 497.269531 565.738281 497.429688 565.855469 497.550781 L 567.824219 499.542969 L 567.828125 499.554688 C 568.515625 498.929688 569.207031 498.296875 569.914062 497.636719 Z M 581.734375 492.621094 L 581.730469 492.621094 L 581.730469 492.625 L 581.726562 492.628906 C 581.730469 492.636719 581.738281 492.640625 581.742188 492.648438 C 582.164062 493.070312 582.171875 493.753906 581.761719 494.199219 L 572.328125 504.472656 C 571.902344 504.9375 571.175781 504.96875 570.710938 504.539062 C 570.695312 504.527344 570.683594 504.511719 570.667969 504.5 C 570.242188 504.066406 570.226562 503.371094 570.640625 502.917969 L 580.070312 492.648438 L 580.074219 492.648438 C 580.5 492.179688 581.226562 492.148438 581.695312 492.578125 C 581.707031 492.59375 581.722656 492.605469 581.734375 492.621094 Z M 587.140625 498.15625 L 587.140625 498.160156 L 587.136719 498.160156 L 587.132812 498.164062 C 587.148438 498.171875 587.164062 498.179688 587.175781 498.195312 C 587.179688 498.199219 587.183594 498.203125 587.1875 498.207031 C 587.605469 498.683594 587.558594 499.410156 587.082031 499.824219 L 587.078125 499.828125 L 576.585938 509.007812 C 576.128906 509.410156 575.4375 509.378906 575.015625 508.949219 C 575 508.933594 574.984375 508.917969 574.96875 508.898438 C 574.550781 508.421875 574.597656 507.703125 575.070312 507.285156 L 585.570312 498.097656 C 586.027344 497.695312 586.71875 497.726562 587.140625 498.15625 Z M 587.070312 490.097656 L 587.066406 490.101562 C 587.054688 490.085938 587.039062 490.074219 587.027344 490.058594 C 586.941406 489.972656 586.832031 489.914062 586.722656 489.867188 L 586.71875 489.871094 L 580.496094 487.324219 C 580.035156 487.136719 579.503906 487.300781 579.234375 487.71875 L 579.230469 487.71875 C 578.039062 489.550781 576.878906 491.332031 575.476562 493.035156 L 575.472656 493.035156 C 574.070312 494.738281 572.402344 496.382812 570.789062 497.90625 L 570.785156 497.90625 C 569.175781 499.425781 567.644531 500.789062 566.101562 502.167969 C 565.917969 502.332031 565.800781 502.558594 565.765625 502.804688 L 565.496094 504.800781 L 565.371094 505.007812 L 574.460938 514.144531 L 574.5625 514.085938 L 576.5625 513.867188 L 576.566406 513.863281 C 576.8125 513.835938 577.039062 513.722656 577.207031 513.542969 C 578.621094 512.035156 580.023438 510.539062 581.578125 508.964844 L 581.582031 508.960938 C 583.140625 507.382812 584.828125 505.757812 586.5625 504.394531 L 586.566406 504.394531 C 588.300781 503.03125 590.105469 501.914062 591.96875 500.765625 C 592.394531 500.503906 592.570312 499.976562 592.394531 499.511719 L 590 493.226562 C 589.949219 493.09375 589.875 492.972656 589.773438 492.871094 L 588.703125 491.777344 L 588.695312 491.773438 C 588.6875 491.757812 588.671875 491.746094 588.660156 491.730469 L 588.660156 491.734375 L 588.367188 491.433594 L 588.179688 491.242188 Z M 567.285156 517.445312 L 567.285156 517.449219 L 567.28125 517.449219 L 567.28125 517.453125 L 567.277344 517.453125 L 567.277344 517.457031 C 567.28125 517.460938 567.289062 517.46875 567.292969 517.472656 C 567.4375 517.617188 567.429688 517.851562 567.28125 518 L 566.703125 518.578125 C 566.546875 518.730469 566.300781 518.730469 566.148438 518.574219 L 560.972656 513.382812 L 560.976562 513.378906 C 560.902344 513.308594 560.863281 513.207031 560.863281 513.105469 C 560.863281 513 560.902344 512.902344 560.976562 512.828125 L 561.5625 512.246094 C 561.636719 512.171875 561.734375 512.132812 561.839844 512.132812 C 561.945312 512.132812 562.042969 512.175781 562.117188 512.246094 Z M 561.425781 523.222656 L 561.421875 523.226562 L 561.421875 523.230469 L 561.417969 523.230469 L 561.414062 523.234375 C 561.421875 523.238281 561.429688 523.242188 561.433594 523.25 C 561.578125 523.394531 561.570312 523.628906 561.421875 523.777344 L 560.84375 524.355469 C 560.6875 524.507812 560.441406 524.507812 560.289062 524.351562 L 555.113281 519.160156 L 555.113281 519.15625 C 555.042969 519.082031 555.003906 518.984375 555.003906 518.882812 C 555.003906 518.777344 555.042969 518.679688 555.117188 518.605469 L 555.703125 518.023438 C 555.777344 517.949219 555.875 517.910156 555.980469 517.910156 C 556.085938 517.910156 556.183594 517.949219 556.257812 518.023438 Z M 555.738281 528.828125 L 555.738281 528.832031 L 555.734375 528.835938 L 555.730469 528.835938 L 555.730469 528.839844 C 555.738281 528.84375 555.742188 528.847656 555.746094 528.855469 C 555.890625 529 555.882812 529.234375 555.738281 529.382812 L 555.15625 529.960938 C 555.003906 530.113281 554.753906 530.113281 554.601562 529.957031 L 549.429688 524.765625 L 549.429688 524.761719 C 549.355469 524.691406 549.316406 524.589844 549.316406 524.488281 C 549.316406 524.382812 549.359375 524.285156 549.433594 524.210938 L 550.019531 523.628906 C 550.089844 523.554688 550.191406 523.515625 550.292969 523.515625 C 550.398438 523.515625 550.496094 523.554688 550.570312 523.628906 Z M 550.097656 534.390625 L 550.097656 534.394531 L 550.09375 534.394531 L 550.089844 534.398438 C 550.09375 534.40625 550.101562 534.410156 550.105469 534.417969 C 550.25 534.5625 550.242188 534.796875 550.097656 534.941406 L 549.515625 535.519531 C 549.363281 535.671875 549.113281 535.671875 548.960938 535.519531 L 543.789062 530.328125 L 543.789062 530.324219 C 543.714844 530.25 543.675781 530.152344 543.675781 530.046875 C 543.675781 529.945312 543.71875 529.84375 543.792969 529.773438 L 544.375 529.191406 C 544.449219 529.117188 544.550781 529.074219 544.652344 529.074219 C 544.757812 529.074219 544.855469 529.117188 544.929688 529.191406 Z M 544.410156 539.996094 L 544.410156 540 L 544.402344 540.007812 C 544.40625 540.011719 544.414062 540.019531 544.417969 540.023438 C 544.5625 540.171875 544.554688 540.40625 544.410156 540.550781 L 543.828125 541.128906 C 543.671875 541.28125 543.425781 541.28125 543.273438 541.128906 L 538.101562 535.9375 L 538.101562 535.933594 C 538.027344 535.859375 537.988281 535.761719 537.988281 535.65625 C 537.988281 535.554688 538.03125 535.453125 538.101562 535.378906 L 538.6875 534.796875 C 538.761719 534.726562 538.863281 534.683594 538.964844 534.683594 C 539.070312 534.683594 539.167969 534.726562 539.242188 534.800781 Z M 538.972656 545.359375 L 538.960938 545.371094 C 538.96875 545.375 538.972656 545.382812 538.980469 545.386719 C 539.125 545.53125 539.117188 545.765625 538.96875 545.914062 L 538.386719 546.492188 C 538.234375 546.644531 537.988281 546.644531 537.835938 546.488281 L 532.660156 541.296875 L 532.660156 541.292969 C 532.589844 541.222656 532.550781 541.121094 532.550781 541.019531 C 532.550781 540.914062 532.589844 540.816406 532.664062 540.742188 L 533.25 540.160156 C 533.324219 540.085938 533.421875 540.046875 533.527344 540.046875 C 533.628906 540.046875 533.730469 540.085938 533.804688 540.160156 Z M 530.65625 548.410156 L 530.652344 548.410156 L 530.648438 548.414062 L 530.648438 548.417969 C 530.691406 548.453125 530.734375 548.496094 530.777344 548.535156 C 530.8125 548.574219 530.847656 548.609375 530.882812 548.648438 C 533.28125 551.335938 533.042969 555.457031 530.359375 557.855469 C 527.753906 560.179688 523.800781 560.03125 521.375 557.574219 C 521.300781 557.496094 521.226562 557.414062 521.152344 557.332031 C 518.753906 554.644531 518.988281 550.523438 521.675781 548.125 C 524.28125 545.800781 528.234375 545.949219 530.65625 548.410156 Z M 532.375 546.710938 L 532.367188 546.71875 C 532.359375 546.714844 532.355469 546.707031 532.347656 546.699219 C 529.035156 543.339844 523.628906 543.140625 520.066406 546.320312 C 516.382812 549.609375 516.0625 555.257812 519.347656 558.941406 C 519.449219 559.054688 519.550781 559.164062 519.65625 559.269531 C 522.980469 562.640625 528.398438 562.84375 531.96875 559.660156 C 535.652344 556.371094 535.972656 550.722656 532.683594 547.039062 C 532.585938 546.925781 532.480469 546.816406 532.375 546.710938 Z M 533.261719 545.835938 L 533.253906 545.84375 C 533.3125 545.898438 533.371094 545.953125 533.425781 546.007812 C 533.492188 546.074219 533.554688 546.140625 533.613281 546.210938 C 537.359375 550.40625 536.992188 556.84375 532.796875 560.589844 C 528.730469 564.21875 522.554688 563.984375 518.769531 560.144531 C 518.652344 560.023438 518.53125 559.898438 518.417969 559.769531 C 514.671875 555.574219 515.039062 549.136719 519.238281 545.390625 C 523.304688 541.761719 529.476562 541.996094 533.261719 545.835938 Z M 512.632812 573.554688 L 512.632812 573.558594 L 512.628906 573.558594 L 512.625 573.5625 C 512.628906 573.570312 512.636719 573.574219 512.640625 573.582031 C 512.875 573.820312 512.871094 574.203125 512.632812 574.4375 L 512.011719 575.054688 C 511.765625 575.300781 511.367188 575.300781 511.125 575.054688 L 503.710938 567.613281 L 503.707031 567.609375 C 503.59375 567.492188 503.527344 567.335938 503.527344 567.167969 C 503.527344 567.003906 503.59375 566.84375 503.710938 566.726562 L 504.335938 566.105469 C 504.453125 565.988281 504.613281 565.921875 504.78125 565.921875 C 504.945312 565.921875 505.105469 565.988281 505.222656 566.105469 Z M 572.789062 515.074219 L 564.414062 506.640625 L 564.132812 507.121094 L 539.203125 531.003906 L 539.191406 531 C 539.164062 530.972656 539.132812 530.945312 539.101562 530.917969 L 539.097656 530.921875 C 537.398438 529.527344 534.160156 526.972656 530.695312 526.875 L 530.691406 526.875 C 527.160156 526.773438 523.738281 529.1875 521.429688 532.167969 L 521.429688 532.171875 C 520.605469 533.238281 519.910156 534.394531 519.261719 535.46875 C 518.625 536.523438 518.039062 537.496094 517.386719 538.339844 C 516.804688 539.089844 516.199219 539.707031 515.503906 540.164062 C 513.992188 541.160156 511.921875 541.515625 509.132812 541.976562 L 509.128906 541.976562 C 507.632812 542.222656 505.976562 542.492188 504.214844 542.929688 L 504.210938 542.933594 C 499.3125 544.148438 493.46875 546.683594 490.234375 551.464844 C 487.003906 556.238281 486.5 563.0625 488.402344 568.628906 L 488.398438 568.632812 C 489.875 572.9375 492.78125 576.484375 495.90625 579.757812 L 495.898438 579.753906 C 495.921875 579.78125 495.949219 579.8125 495.976562 579.84375 C 496.382812 580.257812 496.902344 580.789062 497.320312 581.21875 L 497.378906 581.28125 C 497.804688 581.703125 498.328125 582.230469 498.738281 582.640625 C 498.761719 582.667969 498.824219 582.726562 498.824219 582.726562 C 502.058594 585.890625 505.554688 588.847656 509.839844 590.378906 C 515.378906 592.359375 522.210938 591.953125 527.03125 588.792969 C 531.859375 585.625 534.476562 579.824219 535.761719 574.9375 L 535.765625 574.9375 C 536.226562 573.179688 536.523438 571.527344 536.789062 570.035156 L 536.789062 570.03125 C 537.289062 567.25 537.675781 565.183594 538.691406 563.691406 L 538.691406 563.6875 C 539.160156 563 539.785156 562.402344 540.542969 561.832031 C 541.398438 561.191406 542.378906 560.617188 543.441406 560 C 544.523438 559.367188 545.691406 558.6875 546.769531 557.878906 L 546.773438 557.875 C 549.789062 555.613281 552.25 552.226562 552.199219 548.691406 C 552.148438 545.222656 549.644531 541.949219 548.273438 540.230469 L 548.273438 540.226562 C 548.113281 540.023438 547.964844 539.835938 547.824219 539.664062 L 547.8125 539.660156 L 572.210938 515.394531 Z M 572.789062 515.074219" fill="#"/>
</svg>