<svg xmlns="http://www.w3.org/2000/svg" viewBox="5.22938 4.99999 89.77 90">
  <path d="M 92.46076 8.62653 C 91.46440999999999 8.464080000000001 90.67823999999999 8.85739 90.33923999999999 9.0555 C 90.22581 8.91714 90.12217999999999 8.75203 90.02671999999998 8.61421 C 90.09978999999998 8.58016 90.16457999999999 8.51881 90.23759999999999 8.4847 C 90.15973999999999 8.36536 90.05703999999999 8.16423 90.01962999999999 7.88371 C 90.01275999999999 7.80235 90.00797999999999 7.64896 90.05971 7.4069199999999995 C 90.19227 6.842569999999999 90.47327999999999 6.78712 90.54742 6.3834 C 90.61032 6.06049 90.52278 5.63437 90.21411 5.38249 C 89.87907 5.102869999999999 89.44417 5.18115 89.36287 5.18795 C 89.12709 5.235609999999999 88.96154 5.35733 88.87871 5.41819 C 88.80908 5.3261 88.60851 5.07717 88.26763 5.0138300000000005 C 87.75628999999999 4.918710000000001 87.21321 5.3276200000000005 87.11858 5.82092 C 87.06591999999999 6.09898 87.16763999999999 6.33619 87.22752 6.45509 C 87.12671 6.5154000000000005 86.97031 6.62835 86.84806999999999 6.81438 C 86.79150999999999 6.9029799999999994 86.56496 7.27551 86.68029 7.67532 C 86.83844 8.15757 87.40137 8.34419 87.49095 8.36468 C 88.02762 8.52356 88.33257 8.25238 88.74058 8.49794 C 88.92703999999999 8.60219 89.12084999999999 8.76976 89.12084999999999 8.76976 C 89.23527999999999 8.87205 89.32244999999999 8.98267 89.37449 9.05618 C 89.46609 9.004579999999999 89.54887 8.94378 89.62243 8.891689999999999 C 89.69936 9.047049999999999 89.78599 9.17565 89.88095999999999 9.331499999999998 C 88.65247 10.073359999999997 87.42408999999999 10.815219999999998 86.19521999999999 11.575119999999998 C 86.08220999999999 11.418779999999998 85.9781 11.2717 85.88269 11.133829999999998 C 85.95571 11.099719999999998 86.0205 11.038369999999999 86.08480999999999 10.995059999999999 C 86.01566 10.885039999999998 85.90424999999999 10.674589999999998 85.87554999999999 10.403279999999999 C 85.87800999999999 10.313209999999998 85.86439999999999 10.150609999999999 85.91556999999999 9.92654 C 86.04817999999999 9.362129999999999 86.32919999999999 9.30668 86.40338999999999 8.90302 C 86.46623999999998 8.580169999999999 86.37875999999999 8.15399 86.07928999999999 7.89339 C 85.73503999999998 7.62249 85.30934999999998 7.69205 85.21878999999998 7.70763 C 84.98305999999998 7.75524 84.82671999999998 7.86824 84.73467999999998 7.93782 C 84.66504999999998 7.8457300000000005 84.46491999999998 7.57882 84.12407999999998 7.515420000000001 C 83.61224999999997 7.4383300000000006 83.07837999999998 7.83853 82.98374999999997 8.33183 C 82.92182999999997 8.61866 83.02353999999997 8.85587 83.07470999999997 8.96546 C 82.98309999999996 9.01706 82.82670999999996 9.13 82.70397999999997 9.334060000000001 C 82.65667999999997 9.41388 82.42092999999997 9.795140000000002 82.54545999999998 10.18623 C 82.69434999999997 10.677150000000001 83.26653999999998 10.8551 83.34691999999998 10.88431 C 83.87475999999998 11.03398 84.18847999999998 10.77206 84.60574999999999 11.008849999999999 C 84.79226999999999 11.11305 84.97675999999998 11.289449999999999 84.97675999999998 11.289449999999999 C 85.09118999999998 11.391739999999999 85.17830999999998 11.502299999999998 85.23965999999999 11.567099999999998 C 85.31321999999999 11.515009999999998 85.40482999999999 11.463419999999998 85.47838999999999 11.411329999999998 C 85.56452999999999 11.557969999999997 85.65066999999999 11.704499999999998 85.74606999999999 11.842369999999997 C 85.09530999999998 12.230349999999998 84.43540999999999 12.627109999999997 83.7841 13.033069999999997 C 83.12365 13.447809999999997 82.48165999999999 13.845059999999997 81.89428 14.225739999999996 C 81.78133 14.069339999999997 81.66838 13.913059999999996 81.57347 13.757149999999996 C 81.65526 13.732309999999996 81.72006 13.670959999999996 81.78436 13.627639999999996 C 81.70644 13.508349999999997 81.6038 13.307169999999996 81.57509 13.035969999999995 C 81.55952 12.945299999999996 81.55473 12.791899999999995 81.61517 12.559179999999996 C 81.73902000000001 11.985509999999996 82.02003 11.930059999999996 82.09417 11.526339999999996 C 82.15701 11.203489999999995 82.06948 10.777359999999996 81.7608 10.525489999999996 C 81.42582 10.245819999999997 80.99086 10.324149999999996 80.91833 10.340219999999997 C 80.67388 10.378619999999996 80.50823 10.500339999999996 80.42545 10.561149999999996 C 80.36453999999999 10.478369999999996 80.1552 10.220179999999996 79.81437 10.156789999999996 C 79.30304 10.061669999999996 78.7599 10.470639999999996 78.66532 10.963989999999995 C 78.61260999999999 11.241999999999996 78.71432999999999 11.479199999999995 78.77426 11.598049999999995 C 78.67339 11.658419999999996 78.517 11.771369999999996 78.39476 11.957389999999995 C 78.3382 12.045989999999994 78.11171 12.418469999999996 78.22698000000001 12.818329999999994 C 78.38519000000001 13.300529999999995 78.94806000000001 13.487199999999994 79.04648000000002 13.516899999999994 C 79.57432000000001 13.666569999999995 79.87927000000002 13.395389999999994 80.28727000000002 13.640949999999995 C 80.48256000000002 13.754409999999995 80.66755000000002 13.912769999999995 80.66755000000002 13.912769999999995 C 80.78148000000002 14.033089999999994 80.86915000000002 14.125679999999996 80.92996000000002 14.208449999999996 C 81.00352000000002 14.156359999999996 81.09562000000003 14.086729999999996 81.16919000000003 14.034639999999996 C 81.25483000000003 14.199319999999997 81.35901000000003 14.346339999999996 81.44466000000003 14.511019999999997 C 79.96790000000003 15.435459999999997 78.72971000000003 16.204079999999998 77.80327000000003 16.782919999999997 C 77.68106000000003 16.635299999999997 77.58621000000002 16.479449999999996 77.49075000000002 16.34163 C 77.56376000000002 16.30752 77.62856000000002 16.24617 77.69286000000002 16.202859999999998 C 77.62378000000002 16.092789999999997 77.51230000000002 15.882389999999997 77.48361000000003 15.611079999999998 C 77.47680000000003 15.529779999999997 77.46324000000003 15.367119999999998 77.52369000000003 15.134289999999998 C 77.65625000000003 14.569939999999999 77.93726000000004 14.514489999999999 78.01140000000004 14.110769999999999 C 78.07436000000004 13.787919999999998 77.98682000000004 13.361799999999999 77.67809000000004 13.10986 C 77.34310000000004 12.8303 76.90821000000004 12.90857 76.82690000000004 12.915379999999999 C 76.59112000000003 12.96304 76.42557000000004 13.08476 76.34274000000003 13.14562 C 76.27311000000003 13.053529999999999 76.06377000000003 12.79533 75.72288000000003 12.73199 C 75.22032000000003 12.64613 74.67723000000004 13.05505 74.58261000000003 13.54835 C 74.52995000000003 13.82641 74.63167000000003 14.063619999999998 74.68278000000004 14.173259999999999 C 74.58197000000004 14.233569999999999 74.42557000000004 14.34652 74.31205000000004 14.541749999999999 C 74.25554000000004 14.630399999999998 74.02899000000004 15.002939999999999 74.14433000000004 15.40275 C 74.30243000000004 15.88495 74.86541000000004 16.07162 74.95499000000004 16.092109999999998 C 75.48289000000004 16.241719999999997 75.79661000000004 15.979809999999999 76.20462000000003 16.225369999999998 C 76.39108000000003 16.32962 76.58489000000003 16.4972 76.58489000000003 16.4972 C 76.69932000000003 16.59949 76.78644000000003 16.71005 76.83853000000003 16.78362 C 76.92135000000003 16.722759999999997 77.01291000000003 16.671219999999998 77.08647000000003 16.61913 C 77.16340000000004 16.77449 77.25875000000003 16.9123 77.34495000000004 17.058889999999998 C 76.72150000000003 17.438589999999998 76.27242000000004 17.7059 76.03472000000004 17.82565 C 75.87930000000003 17.90252 75.36740000000003 18.15903 75.29234000000004 18.59877 C 75.26944000000003 18.77848 75.32926000000003 18.897329999999997 75.40417000000004 19.124769999999998 C 75.51373000000004 19.407259999999997 75.80667000000004 20.23575 75.72663000000004 20.85569 C 75.69349000000004 21.08014 75.58481000000005 21.42881 75.23157000000005 21.81589 C 63.580730000000045 32.4617 51.94787000000005 43.10795 40.305750000000046 53.762969999999996 C 40.106090000000044 53.81166999999999 39.888890000000046 53.841739999999994 39.646410000000046 53.808099999999996 C 38.90954000000004 53.715909999999994 38.472340000000045 53.21706999999999 38.341410000000046 53.06023999999999 C 37.90421000000005 52.56139999999999 37.68085000000005 51.82504999999999 37.870280000000044 49.83762999999999 C 38.14038000000004 46.87869999999999 38.86387000000004 45.80740999999999 38.213610000000045 44.52742999999999 C 38.10214000000005 44.31702999999999 37.836860000000044 43.79586999999999 37.24957000000005 43.509309999999985 C 36.64474000000005 43.20433999999999 36.028170000000046 43.331749999999985 35.79250000000005 43.379409999999986 C 34.685940000000045 43.619689999999984 32.456090000000046 45.046599999999984 29.53814000000005 50.21434999999998 C 28.457950000000046 52.13239999999998 28.221080000000047 52.88326999999998 27.084040000000048 54.24071999999998 C 25.649350000000048 55.93271999999998 24.492570000000047 56.69452999999998 24.226590000000048 56.85863999999998 C 23.520360000000046 57.29914999999998 23.04743000000005 57.44857999999998 20.510940000000048 58.21786999999998 C 16.629210000000047 59.383269999999975 16.09395000000005 59.50386999999998 14.910490000000047 59.92238999999998 C 13.353870000000047 60.46592999999998 12.015440000000048 60.94333999999998 10.915660000000047 61.59857999999998 C 6.773550000000047 64.04612999999998 5.579090000000047 69.16179999999997 5.486420000000047 69.58304999999997 C 4.383510000000047 74.64706999999997 7.023390000000047 79.01086999999997 9.723160000000046 83.49333999999998 C 11.293080000000046 86.09678999999997 13.145500000000046 88.25714999999998 14.054500000000047 89.30980999999997 C 14.919640000000047 90.31614999999996 15.795510000000046 91.25971999999997 16.994290000000046 92.26618999999997 C 18.439350000000047 93.49575999999996 19.347450000000045 94.25078999999997 20.751370000000044 94.67678999999997 C 21.055260000000043 94.77526999999996 22.871120000000044 95.30264999999997 24.932760000000044 94.75487999999997 C 28.983400000000046 93.67520999999998 30.850270000000044 89.36234999999998 31.148440000000043 88.67620999999997 C 32.15913000000004 86.33252999999996 31.81609000000004 85.02488999999997 33.331130000000044 81.37858999999997 C 33.610880000000044 80.71000999999997 34.09129000000004 79.62310999999997 35.15616000000004 78.59734999999998 C 36.05395000000004 77.74723999999998 37.004190000000044 77.28631999999998 37.65096000000004 77.04245999999998 C 39.39748000000004 76.47701999999998 40.73304000000004 75.77412999999997 41.640450000000044 75.23085999999998 C 43.02473000000004 74.39408999999998 44.36324000000005 73.58308999999998 45.46140000000004 71.99911999999998 C 46.13710000000004 71.02579999999998 47.06566000000004 69.70773999999997 46.73833000000004 68.15701999999997 C 46.49897000000004 67.01443999999998 45.67328000000004 66.21652999999998 45.34750000000004 65.92814999999997 C 44.66047000000004 65.33235999999998 44.39405000000004 65.51444999999997 43.44749000000004 64.84844999999997 C 42.96936000000004 64.52882999999997 41.85431000000004 63.75912999999997 41.46260000000004 62.585319999999975 C 41.220760000000034 61.866459999999975 41.33780000000004 61.211489999999976 41.488450000000036 60.64757999999998 C 53.670930000000034 48.690869999999975 65.84464000000004 36.72499999999998 78.03596000000005 24.777609999999974 C 78.19427000000005 24.592569999999974 78.43595000000005 24.328689999999973 78.75061000000005 24.030759999999976 C 79.13981000000005 23.644659999999977 79.36192000000005 23.434349999999977 79.73798000000005 23.201149999999977 C 80.29763000000005 22.846719999999976 80.79731000000005 22.707099999999976 80.91518000000005 22.683239999999977 C 81.37830000000005 22.560669999999977 81.74797000000005 22.561729999999976 82.06352000000005 22.561309999999978 C 82.32508000000006 22.559419999999978 82.76678000000005 22.562449999999977 83.08821000000006 22.679459999999978 C 83.21283000000005 22.73695999999998 83.33799000000006 22.77646999999998 83.46266000000006 22.833909999999978 C 83.59605000000006 22.900669999999977 83.65790000000005 22.94742999999998 83.74851000000005 22.931909999999977 C 83.86589000000005 22.926089999999977 83.93117000000005 22.846699999999977 83.98720000000006 22.776079999999975 C 84.40413000000005 22.363719999999976 84.91568000000005 21.791609999999977 85.44036000000006 21.066589999999977 C 85.88074000000006 20.456539999999976 86.17454000000005 19.932579999999977 86.42010000000006 19.524569999999976 C 86.58136000000006 19.231419999999975 86.53460000000007 19.293259999999975 87.50373000000006 17.480369999999976 C 87.61774000000005 17.267099999999974 87.85503000000006 16.831789999999977 88.16778000000006 16.272299999999976 C 88.42310000000006 15.837479999999976 88.54637000000007 15.615439999999976 88.64038000000006 15.473719999999977 C 89.01603000000006 14.924969999999977 89.36294000000007 14.438559999999978 89.96339000000006 14.238559999999977 C 90.14506000000006 14.189419999999977 90.28974000000007 14.175319999999976 90.44313000000007 14.170539999999976 C 91.12983000000007 14.117079999999977 91.55588000000007 14.363129999999975 91.89578000000007 14.462549999999975 C 92.76407000000007 14.693649999999975 93.97778000000007 14.158739999999975 94.56923000000008 13.300339999999975 C 95.17970000000008 12.406349999999975 94.98224000000008 11.382129999999975 94.91802000000007 11.091859999999976 C 94.86355000000007 10.774769999999975 94.62031000000007 9.776439999999976 93.69129000000007 9.128969999999976 C 93.20487 8.78205 92.72128 8.66066 92.46076 8.62653 z M 16.69138 73.29689 L 18.02415 72.03492 L 24.78971 79.18004 L 23.45694 80.44201000000001 L 16.69138 73.29689 z M 17.92253 84.68188 L 12.199839999999998 78.63814 L 15.494719999999997 75.51828 L 21.217409999999997 81.56202 L 17.92253 84.68188 z M 36.6967 53.52931 C 36.87677 53.86782 37.24095 54.40066 37.9397 54.897600000000004 C 37.99411 55.21463000000001 38.0403 55.50442 38.09576 55.785430000000005 C 36.54235 57.203720000000004 34.98894 58.62189000000001 33.43553 60.04018000000001 L 33.42626 60.048950000000005 C 33.417 60.05772 33.417 60.05772 33.40773 60.06649 C 33.37073 60.101530000000004 33.33373 60.13656 33.31466 60.172090000000004 C 33.201690000000006 60.349340000000005 33.187940000000005 60.52028000000001 33.18652 60.57433 C 33.17816 60.88062 33.334430000000005 61.10132 33.37774 61.165620000000004 C 33.698550000000004 61.63421 34.072430000000004 62.14029000000001 34.52761 62.63956 C 35.044250000000005 63.203630000000004 35.510670000000005 63.62209 35.82811 63.88324 C 36.09254 64.10683 36.33986 64.29392 36.51662 64.42492 C 36.80584 64.73036 37.28307 64.75235 37.58796 64.48122 C 37.59722 64.47245 37.59722 64.47245 37.60649 64.46368 L 37.61576 64.45491 C 38.26413 63.823409999999996 38.913000000000004 63.17398 39.561370000000004 62.54248 C 39.92627 63.70653 40.24566 64.22918 40.620520000000006 64.69918 C 40.93403000000001 65.10451 41.422340000000005 65.71287 42.244730000000004 66.30328 C 43.57936 67.28644 44.43797000000001 67.21065 44.83221 67.9608 C 45.30393 68.84821000000001 44.66762000000001 70.03002000000001 44.37328 70.57196 C 44.135510000000004 71.02531 43.18987 72.64046 39.35125 74.53728000000001 C 36.53655 75.92110000000001 35.50265 75.81177000000001 34.22001 77.21934000000002 C 33.82983 77.64151000000001 33.222370000000005 78.42733000000001 32.6762 79.27800000000002 C 32.35609 79.77417000000003 31.894720000000003 80.49184000000002 31.452240000000003 81.50768000000002 C 31.11604 82.26486000000003 30.936660000000003 82.89111000000003 30.828480000000003 83.22175000000003 C 30.768470000000004 83.43649000000003 30.68906 83.70486000000002 30.402410000000003 84.95927000000003 C 30.125460000000004 86.18692000000003 30.082990000000002 86.42019000000003 29.901660000000003 87.11848000000003 C 29.578990000000005 88.37197000000003 29.414240000000003 88.79120000000003 29.051790000000004 89.18711000000003 C 28.810160000000003 89.45093000000003 28.578290000000003 89.68806000000004 28.234500000000004 89.73278000000003 C 27.329070000000005 89.87036000000003 26.454810000000005 88.53915000000003 26.088240000000006 87.76279000000004 C 25.833260000000006 87.19683000000003 25.764140000000005 86.75316000000004 25.656250000000007 86.08297000000003 C 25.596450000000008 85.63059000000003 25.408820000000006 84.24596000000003 25.704530000000005 81.99999000000003 C 25.828940000000006 81.07469000000003 25.892750000000007 81.04941000000002 26.096630000000005 79.85580000000003 C 26.324880000000004 78.42849000000002 26.428930000000005 77.25923000000003 26.485600000000005 76.50340000000003 C 26.488120000000006 76.41327000000003 26.482290000000006 76.29590000000003 26.449720000000006 76.16883000000003 C 26.409350000000007 75.99641000000003 26.340700000000005 75.86836000000002 26.289110000000008 75.77676000000002 C 24.48380000000001 73.87017000000003 22.66972000000001 71.95432000000002 20.873670000000008 70.03896000000003 C 20.78655000000001 69.92839000000004 20.48317000000001 69.47833000000003 20.545230000000007 68.85785000000003 C 20.594520000000006 68.37235000000003 20.81959000000001 68.05391000000003 20.922420000000006 67.92151000000003 C 22.388650000000005 66.39271000000002 23.538810000000005 65.21590000000003 24.215910000000004 64.52206000000002 C 26.321300000000004 62.37059000000002 26.886360000000003 61.81798000000003 27.536280000000005 60.79889000000002 C 28.392750000000007 59.47880000000002 28.143950000000004 59.34583000000002 29.254910000000006 56.95981000000002 C 29.254910000000006 56.95981000000002 30.979420000000005 53.238050000000015 34.54556000000001 50.08955000000002 C 34.87824000000001 49.792110000000015 35.198220000000006 49.62947000000002 35.52157000000001 49.67440000000002 C 35.75490000000001 49.71681000000002 35.89558000000001 49.84684000000002 35.93939000000001 49.89310000000002 C 36.33524000000001 50.255600000000015 36.12127000000001 50.82675000000002 36.18731000000001 51.71218000000002 C 36.20084 51.87483 36.26786 52.72418 36.6967 53.52931 z" fill="#000000"/>
</svg>