<svg xmlns="http://www.w3.org/2000/svg" viewBox="3.94802 12.712 92.05 74.69">
  <path d="M 70.8 20.3 C 70 19.1 68.5 18.6 67.2 18.900000000000002 C 65.8 19.200000000000003 64.8 20.400000000000002 64.60000000000001 21.8 L 62.900000000000006 32.3 C 62.50000000000001 34.5 61.300000000000004 36.5 59.50000000000001 37.9 L 49.2 45.4 L 47.800000000000004 43.4 C 47.300000000000004 42.6 46.400000000000006 42.1 45.50000000000001 42 C 44.800000000000004 41.9 44.20000000000001 42 43.50000000000001 42.3 L 42.7 41 L 43.1 40.7 C 43.800000000000004 40.2 43.9 39.300000000000004 43.4 38.6 C 42.9 37.9 42 37.800000000000004 41.3 38.300000000000004 L 38 40.7 C 37.3 41.2 37.2 42.1 37.7 42.800000000000004 C 38 43.2 38.5 43.400000000000006 38.900000000000006 43.400000000000006 C 39.2 43.400000000000006 39.50000000000001 43.300000000000004 39.800000000000004 43.10000000000001 L 40.2 42.80000000000001 L 41 43.90000000000001 C 39.9 45.100000000000016 39.8 46.90000000000001 40.8 48.30000000000001 L 42.199999999999996 50.30000000000001 L 40.599999999999994 51.500000000000014 L 39.199999999999996 49.500000000000014 C 38.699999999999996 48.70000000000002 37.8 48.20000000000002 36.9 48.100000000000016 C 36.199999999999996 48.000000000000014 35.6 48.100000000000016 34.9 48.40000000000001 L 34.1 47.30000000000001 L 34.5 47.000000000000014 C 35.2 46.500000000000014 35.3 45.600000000000016 34.8 44.90000000000001 C 34.3 44.20000000000001 33.4 44.100000000000016 32.699999999999996 44.600000000000016 L 29.399999999999995 47.000000000000014 C 28.699999999999996 47.500000000000014 28.599999999999994 48.40000000000001 29.099999999999994 49.100000000000016 C 29.399999999999995 49.500000000000014 29.899999999999995 49.70000000000002 30.299999999999994 49.70000000000002 C 30.599999999999994 49.70000000000002 30.899999999999995 49.600000000000016 31.199999999999992 49.40000000000002 L 31.59999999999999 49.10000000000002 L 32.39999999999999 50.200000000000024 C 31.29999999999999 51.40000000000003 31.199999999999992 53.200000000000024 32.19999999999999 54.60000000000002 L 33.59999999999999 56.60000000000002 L 31.999999999999986 57.800000000000026 L 30.599999999999987 55.800000000000026 C 30.099999999999987 55.00000000000003 29.19999999999999 54.50000000000003 28.299999999999986 54.40000000000003 C 27.599999999999987 54.300000000000026 26.999999999999986 54.40000000000003 26.299999999999986 54.700000000000024 L 25.499999999999986 53.60000000000002 L 25.899999999999984 53.300000000000026 C 26.599999999999984 52.800000000000026 26.699999999999985 51.90000000000003 26.199999999999985 51.200000000000024 C 25.699999999999985 50.50000000000002 24.799999999999986 50.40000000000003 24.099999999999984 50.90000000000003 L 21.1 53 C 20.400000000000002 53.5 20.3 54.4 20.8 55.1 C 21.1 55.5 21.6 55.7 22 55.7 C 22.3 55.7 22.6 55.6 22.9 55.400000000000006 L 23.299999999999997 55.10000000000001 L 24.099999999999998 56.20000000000001 C 22.999999999999996 57.40000000000001 22.9 59.20000000000001 23.9 60.60000000000001 L 25.299999999999997 62.60000000000001 L 14.699999999999998 70.30000000000001 C 13.899999999999997 70.9 13.599999999999998 71.9 13.899999999999997 72.80000000000001 L 11.199999999999996 74.80000000000001 C 10.199999999999996 73.50000000000001 8.399999999999995 73.20000000000002 6.999999999999996 74.10000000000001 L 5 75.5 C 3.9 76.3 3.6 77.9 4.4 79 L 9.600000000000001 86.2 C 10.100000000000001 86.9 10.900000000000002 87.2 11.600000000000001 87.2 C 12.100000000000001 87.2 12.600000000000001 87 13.100000000000001 86.7 L 15.000000000000002 85.3 C 15.600000000000001 84.8 16.1 84.1 16.200000000000003 83.39999999999999 C 16.300000000000004 82.6 16.1 81.8 15.700000000000003 81.19999999999999 L 18.400000000000002 79.19999999999999 C 19.200000000000003 79.69999999999999 20.200000000000003 79.79999999999998 21.000000000000004 79.19999999999999 L 26.300000000000004 75.29999999999998 C 26.800000000000004 77.19999999999999 27.700000000000003 78.89999999999998 28.800000000000004 80.49999999999999 C 32.00000000000001 84.99999999999999 37.10000000000001 87.39999999999999 42.300000000000004 87.39999999999999 C 45.7 87.39999999999999 49.1 86.39999999999999 52 84.19999999999999 L 62.1 76.89999999999999 C 69.5 71.49999999999999 71.2 61.099999999999994 65.8 53.69999999999999 C 64.6 52.09999999999999 63.199999999999996 50.69999999999999 61.599999999999994 49.69999999999999 L 65.8 46.69999999999999 C 67.6 45.39999999999999 69.89999999999999 44.79999999999999 72.1 45.19999999999999 L 82.6 46.89999999999999 C 84 47.099999999999994 85.39999999999999 46.49999999999999 86.1 45.29999999999999 C 86.8 44.09999999999999 86.8 42.59999999999999 86 41.39999999999999 L 70.8 20.3 z M 45 44.8 C 45.1 44.8 45.2 44.9 45.3 45 L 46.699999999999996 47 L 44.699999999999996 48.5 L 43.3 46.5 C 43.099999999999994 46.3 43.199999999999996 46 43.4 45.8 L 44.6 44.9 C 44.8 44.8 44.9 44.8 45 44.8 z M 34.8 52.7 C 34.599999999999994 52.5 34.699999999999996 52.2 34.9 52 L 36.1 51.1 C 36.2 51 36.4 51 36.5 51 C 36.6 51 36.7 51.1 36.8 51.2 L 38.199999999999996 53.2 L 36.199999999999996 54.7 L 34.8 52.7 z M 26.2 58.8 C 26 58.599999999999994 26.099999999999998 58.3 26.3 58.099999999999994 L 27.5 57.199999999999996 C 27.6 57.099999999999994 27.8 57.099999999999994 27.9 57.099999999999994 C 28 57.099999999999994 28.099999999999998 57.199999999999996 28.2 57.3 L 29.599999999999998 59.3 L 27.599999999999998 60.8 L 26.2 58.8 z M 60.4 74.5 L 50.3 81.8 C 44.199999999999996 86.2 35.699999999999996 84.8 31.299999999999997 78.8 C 30.099999999999998 77.2 29.4 75.39999999999999 28.999999999999996 73.39999999999999 L 33.699999999999996 69.99999999999999 C 33.49999999999999 71.99999999999999 33.99999999999999 74.09999999999998 35.3 75.89999999999999 C 37 78.19999999999999 39.699999999999996 79.49999999999999 42.4 79.49999999999999 C 44.199999999999996 79.49999999999999 46 78.99999999999999 47.5 77.79999999999998 L 57.5 70.59999999999998 C 61.4 67.79999999999998 62.3 62.29999999999998 59.4 58.39999999999998 C 56.6 54.49999999999998 51.099999999999994 53.59999999999998 47.2 56.49999999999998 L 43.1 59.49999999999998 L 19.8 76.3 C 19.5 76.1 19.2 76 18.900000000000002 75.89999999999999 C 18.3 75.8 17.700000000000003 75.89999999999999 17.200000000000003 76.3 L 14 78.7 C 12.7 79.7 12.4 81.5 13.3 82.9 L 11.8 84 L 7.200000000000001 77.7 L 8.700000000000001 76.60000000000001 C 9.700000000000001 77.9 11.5 78.2 12.900000000000002 77.30000000000001 L 16.1 75.00000000000001 C 16.6 74.60000000000001 16.900000000000002 74.10000000000001 17 73.50000000000001 C 17.1 73.20000000000002 17 72.80000000000001 16.9 72.50000000000001 L 28.2 64.30000000000001 C 28.2 64.30000000000001 28.2 64.30000000000001 28.2 64.30000000000001 C 28.2 64.30000000000001 28.2 64.30000000000001 28.2 64.30000000000001 L 34.3 59.90000000000001 C 34.3 59.90000000000001 34.3 59.90000000000001 34.3 59.90000000000001 L 36.699999999999996 58.20000000000001 C 36.699999999999996 58.20000000000001 36.699999999999996 58.20000000000001 36.699999999999996 58.20000000000001 C 36.699999999999996 58.20000000000001 36.699999999999996 58.20000000000001 36.699999999999996 58.20000000000001 L 39.99999999999999 55.80000000000001 C 39.99999999999999 55.80000000000001 39.99999999999999 55.80000000000001 39.99999999999999 55.80000000000001 L 44.39999999999999 52.60000000000001 C 50.49999999999999 48.20000000000001 58.99999999999999 49.60000000000001 63.39999999999999 55.60000000000001 C 67.9 61.5 66.5 70.1 60.4 74.5 z M 49 58.9 C 50 58.199999999999996 51.2 57.8 52.3 57.8 C 54.099999999999994 57.8 55.8 58.599999999999994 56.9 60.199999999999996 C 58.699999999999996 62.699999999999996 58.199999999999996 66.3 55.6 68.19999999999999 L 45.6 75.39999999999999 C 43.1 77.19999999999999 39.5 76.69999999999999 37.6 74.1 C 35.800000000000004 71.6 36.300000000000004 68 38.9 66.1 L 45.9 60.99999999999999 C 45.9 60.99999999999999 45.9 60.99999999999999 45.9 60.99999999999999 L 49 58.9 z M 83.7 43.6 C 83.60000000000001 43.7 83.5 43.9 83.2 43.800000000000004 L 72.7 42.1 C 69.7 41.6 66.60000000000001 42.300000000000004 64.10000000000001 44.1 L 58.70000000000001 48 C 56.60000000000001 47.1 54.30000000000001 46.7 52.10000000000001 46.7 L 61.20000000000001 40.1 C 63.70000000000001 38.300000000000004 65.30000000000001 35.6 65.80000000000001 32.6 L 67.50000000000001 22.1 C 67.50000000000001 21.8 67.80000000000001 21.700000000000003 67.90000000000002 21.700000000000003 C 68.00000000000001 21.700000000000003 68.30000000000003 21.700000000000003 68.40000000000002 21.900000000000002 L 83.60000000000002 42.900000000000006 C 83.8 43.3 83.7 43.5 83.7 43.6 zM 84.7 27.7 C 85 27.7 85.3 27.599999999999998 85.60000000000001 27.4 L 90.9 23.599999999999998 C 91.60000000000001 23.099999999999998 91.7 22.2 91.2 21.499999999999996 C 90.7 20.799999999999997 89.8 20.699999999999996 89.10000000000001 21.199999999999996 L 83.9 25 C 83.2 25.5 83.10000000000001 26.4 83.60000000000001 27.1 C 83.8 27.5 84.3 27.7 84.7 27.7 zM 76.5 22.1 C 76.7 22.200000000000003 76.8 22.200000000000003 77 22.200000000000003 C 77.6 22.200000000000003 78.2 21.800000000000004 78.4 21.200000000000003 L 80.5 14.700000000000003 C 80.8 13.900000000000002 80.3 13.100000000000003 79.5 12.800000000000002 C 78.7 12.500000000000002 77.9 13.000000000000002 77.6 13.800000000000002 L 75.5 20.300000000000004 C 75.3 20.9 75.7 21.8 76.5 22.1 zM 94.5 33.9 C 94.5 33.9 94.5 33.9 94.5 33.9 L 87.7 33.9 C 86.9 33.9 86.2 34.6 86.2 35.4 C 86.2 36.199999999999996 86.9 36.9 87.7 36.9 C 87.7 36.9 87.7 36.9 87.7 36.9 L 94.5 36.9 C 95.3 36.9 96 36.199999999999996 96 35.4 C 96 34.6 95.4 33.9 94.5 33.9 z" fill="#000000"/>
</svg>