<svg xmlns="http://www.w3.org/2000/svg" viewBox="62.6734 225.807 677.2 548.6">
  <path d="M 73.265554 225.81242 C 67.614554 225.72242 63.98555399999999 226.68242 62.962554 228.96342 C 58.556554 239.01742000000002 105.02154999999999 269.22342000000003 167.20755 296.96542 L 167.20755 755.88339 C 167.20755 761.90339 171.97455 766.67139 177.99455 766.67139 C 183.95255 766.67139 188.78155 761.90339 188.78155 755.88339 L 188.78155 306.17742 C 243.89355 328.76741999999996 288.99355 339.66442 293.02655000000004 330.54141999999996 C 297.43255000000005 320.48742 250.96755000000005 290.28141999999997 188.78155000000004 262.5404199999999 L 188.78155000000004 246.78241999999992 C 188.78155000000004 240.82441999999992 183.95255000000003 235.9944199999999 177.99455000000003 235.9944199999999 C 171.97455000000002 235.9944199999999 167.20755000000003 240.82441999999992 167.20755000000003 246.78241999999992 L 167.20755000000003 253.3274199999999 C 125.78055000000003 236.3854199999999 90.21955400000003 226.0774199999999 73.26555400000002 225.81241999999992 z M 729.39955 225.81242 C 712.46555 226.06242 676.71655 236.33842 635.33755 253.32742000000002 L 635.33755 246.78242000000003 C 635.33755 240.82442000000003 630.5075499999999 235.99442000000002 624.54955 235.99442000000002 C 618.52955 235.99442000000002 613.64055 240.82442000000003 613.64055 246.78242000000003 L 613.64055 262.66142 C 551.5165499999999 290.34042 505.11154999999997 320.48742000000004 509.51654999999994 330.54142 C 513.5505499999999 339.66442 558.46755 328.95142000000004 613.64055 306.29842 L 613.64055 755.88339 C 613.64055 761.90339 618.52955 766.67139 624.54955 766.67139 C 630.5075499999999 766.67139 635.33755 761.90339 635.33755 755.88339 L 635.33755 297.08642 C 697.46055 269.34441999999996 743.9885499999999 239.13941999999997 739.58155 229.08541999999997 C 738.58955 226.80441999999996 735.04555 225.72841999999997 729.39955 225.81241999999997 z M 487.69854999999995 325.08642 C 471.49854999999997 329.12142 455.39854999999994 334.79942 439.69755 341.93642 C 434.98055 344.04642 432.21254999999996 349.50642 433.51455 354.90542 L 448.30355 423.99842 C 433.40855 419.96342 417.71855 417.69442000000004 401.27155 417.69442000000004 C 384.82455 417.69442000000004 369.01355 419.90142000000003 354.12055 423.99842 L 369.02955 354.90542 C 370.33155 349.50642 367.56755 344.04642 362.72555 341.93642 C 346.96255 334.61242 330.74455 329.11742 314.36055 325.20742 C 314.98154999999997 329.55242000000004 314.83655 334.36342 312.66355 339.39042 C 307.26455 351.92642 295.32554999999996 355.51242 282.60155 355.51242 C 270.25354999999996 355.51242 257.42755 352.05242000000004 248.05755 349.69342 C 243.77455 348.39042 238.77355 346.87542 233.99554999999998 345.57242 L 217.26854999999998 422.54342 C 216.15155 427.94242 218.84154999999998 433.58342000000005 224.05454999999998 435.75542 C 245.65254999999996 444.81642 268.22655 451.29642 292.05854999999997 455.39242 C 249.85654999999997 487.78842000000003 222.96354999999997 538.71842 222.96354999999997 596.00139 C 222.96354999999997 642.05139 240.59454999999997 684.0473900000001 269.39054999999996 715.76139 L 242.23854999999998 749.09539 C 238.45354999999998 753.6873899999999 239.15954999999997 760.52339 243.81454999999997 764.24739 C 245.79954999999998 765.86039 248.18254999999996 766.67139 250.60254999999998 766.67139 C 253.76854999999998 766.67139 256.85654999999997 765.3993899999999 258.96555 762.7933899999999 L 284.78455 730.9133899999999 C 316.06455000000005 757.9723899999999 356.65255 774.4293899999999 401.15055 774.4293899999999 C 445.89855 774.4293899999999 486.66055 757.7353899999999 518.00055 730.4283899999999 L 544.30455 762.67139 C 546.4165499999999 765.27739 549.5645499999999 766.67139 552.66855 766.67139 C 555.08955 766.67139 557.47055 765.8603899999999 559.45755 764.24739 C 564.04955 760.46139 564.88055 753.68739 561.03255 749.09539 L 533.39655 715.0333899999999 C 561.88255 683.38239 579.33455 641.7413899999999 579.33455 596.0013899999999 C 579.33455 538.5324199999999 552.08555 487.4904199999999 509.75755000000004 454.90841999999986 C 533.71555 450.8114199999999 556.52655 444.50941999999986 578.12455 435.63441999999986 C 583.33755 433.46241999999984 586.02755 427.8214199999999 584.91255 422.4224199999999 L 568.54755 345.8154199999999 C 563.58255 347.1184199999999 559.07955 348.5764199999999 554.48655 349.6934199999999 C 545.24055 352.05241999999987 532.16855 355.5124199999999 519.8205499999999 355.5124199999999 C 507.0345499999999 355.5124199999999 495.2795499999999 351.9264199999999 489.8805499999999 339.3904199999999 C 487.7075499999999 334.4254199999999 487.26454999999993 329.61741999999987 487.6985499999999 325.0864199999999 z M 401.39354999999995 439.27142 L 453.6375499999999 448.60442 C 461.64154999999994 451.14942 469.4045499999999 454.75242000000003 476.78854999999993 458.78642 C 525.07255 485.59742 557.88155 537.04342 557.88155 596.00139 C 557.88155 682.45439 487.59854999999993 752.85339 401.27154999999993 752.85339 C 314.8205499999999 752.85339 244.66254999999992 682.39139 244.66254999999992 596.00139 C 244.66254999999992 537.47742 277.0485499999999 485.96142000000003 325.27054999999996 459.15042000000005 C 332.84254999999996 454.86842000000007 340.83654999999993 451.1494200000001 349.02754999999996 448.60442000000006 C 365.47454999999997 442.52242000000007 383.02254999999997 439.27142000000003 401.39354999999995 439.27142000000003 z M 446.12154999999996 629.21439 C 436.60473805860903 629.2119351828406 427.4769905138317 632.9913183710695 420.7474942563725 639.7206270781188 C 414.01799799891324 646.4499357851681 410.238360419166 655.5775779938887 410.24055 665.09439 C 410.23862575526795 674.6110287608865 414.01838047042037 683.7384140041755 420.7478479569004 690.4675063914394 C 427.4773154433804 697.1965987787033 436.6049113611581 700.9758447151166 446.12154999999996 700.97339 C 455.6378421516765 700.9753140525835 464.7649241472719 697.1958338467526 471.49395899701227 690.4667989970122 C 478.2229938467526 683.737764147272 482.0024740525835 674.6106821516765 482.00055 665.09439 C 482.0027393790175 655.5779246035781 478.22337630543905 646.4505856489792 471.49431268767603 639.7213344824099 C 464.765249069913 632.9920833158408 455.63801545374594 629.2124658550416 446.12154999999996 629.21439 z" fill="#000000"/>
</svg>