<svg xmlns="http://www.w3.org/2000/svg" viewBox="5.83671 4.34386 116.4 117.2">
  <path d="M 119.563 6.606 C 119.5039376036324 6.596892564376399 119.44640217735632 6.579732875837919 119.392 6.555 C 119.38179606858206 6.5654794690165525 119.36997979587511 6.574257271598862 119.357 6.5809999999999995 C 118.776 6.819999999999999 118.211 7.0809999999999995 117.646 7.350999999999999 C 117.697 7.410999999999999 117.74 7.478999999999999 117.8 7.538999999999999 C 118.545 8.318 117.36399999999999 9.498 116.619 8.719999999999999 C 116.43907528273675 8.5314313313618 116.27203193817043 8.330979317882216 116.119 8.12 C 115.68299999999999 8.350999999999999 115.255 8.59 114.819 8.829999999999998 L 115.024 9.034999999999998 C 115.32472845227683 9.365137443014978 115.31288951024192 9.873338509467954 114.99711400985494 10.189114009854931 C 114.68133850946796 10.504889510241906 114.17313744301498 10.516728452276832 113.843 10.215999999999998 C 113.664 10.035999999999998 113.48400000000001 9.856999999999998 113.304 9.668999999999997 C 113.08200000000001 9.796999999999997 112.85900000000001 9.924999999999997 112.628 10.044999999999996 C 112.688 10.121999999999996 112.748 10.198999999999996 112.799 10.275999999999996 C 112.91044489789493 10.46661571468238 112.94144634595098 10.693747426277609 112.88516091400484 10.907256831459968 C 112.8288754820587 11.120766236642327 112.68993141844162 11.303096846742005 112.49900000000001 11.413999999999996 C 112.10086021228305 11.637454055256976 111.59723908945863 11.504689260136304 111.361 11.113999999999995 C 111.292 11.027999999999995 111.224 10.933999999999996 111.155 10.847999999999995 C 110.599 11.138999999999996 110.034 11.429999999999996 109.461 11.703999999999995 C 109.60863386421792 12.063066945814112 109.6899487142985 12.445924364943451 109.701 12.833999999999994 C 109.744 13.911999999999995 108.07499999999999 13.902999999999995 108.041 12.833999999999996 C 108.03165109159706 12.67893518914596 107.99999201257157 12.526028573427046 107.947 12.379999999999994 C 107.784 12.448999999999996 107.63000000000001 12.516999999999996 107.467 12.584999999999996 C 107.091 12.730999999999996 106.697 12.875999999999996 106.27799999999999 13.029999999999996 C 106.54299999999999 13.346999999999996 106.817 13.654999999999996 107.10799999999999 13.954999999999997 C 107.86099999999999 14.724999999999996 106.689 15.905999999999997 105.92699999999999 15.134999999999996 C 105.46713832998564 14.667343615199616 105.0385458897724 14.169935865022275 104.64399999999999 13.645999999999997 C 104.0425833476343 13.881263564029053 103.45408765929868 14.14830641749956 102.88099999999999 14.445999999999996 C 103.01799999999999 14.522999999999996 103.14599999999999 14.607999999999997 103.29999999999998 14.676999999999996 C 103.69575807025086 14.909421112270183 103.8297463131491 15.417683180330867 103.59999999999998 15.814999999999996 C 103.36275537051576 16.204342932003538 102.86035093416828 16.336786983764735 102.46199999999997 16.114999999999995 C 102.05743106424671 15.942975858083672 101.68536906914503 15.702826752154403 101.36199999999998 15.404999999999994 C 100.50216482328206 16.04472175730453 99.86233812009581 16.935796630666033 99.53099999999998 17.95499999999999 C 99.73128341680552 17.919404895594198 99.93714457389491 17.97269519512443 100.09499999999997 18.100999999999996 C 100.63399999999997 18.485999999999997 101.13899999999997 18.900999999999996 101.64399999999998 19.340999999999994 C 101.77199999999998 19.092999999999993 101.92699999999998 18.861999999999995 102.05499999999998 18.613999999999994 C 102.55999999999997 17.663999999999994 104.00599999999997 18.502999999999993 103.50099999999998 19.452999999999992 C 103.36399999999998 19.708999999999993 103.20099999999998 19.952999999999992 103.07299999999998 20.205999999999992 C 103.02208199061367 20.297621435726967 102.95421046958735 20.37872790335341 102.87299999999998 20.444999999999993 C 103.16399999999997 20.718999999999994 103.45499999999997 21.000999999999994 103.73699999999998 21.27499999999999 C 105.33699999999997 20.042999999999992 107.82699999999998 20.96699999999999 109.53699999999998 22.09699999999999 C 111.33861664626725 18.7514441088775 113.66058882853802 15.713538942365371 116.41599999999997 13.096999999999998 C 116.55618326666657 12.966423775504861 116.73857005916565 12.890488418316526 116.92999999999998 12.88299999999999 C 117.04618929526502 12.592037580045973 117.33634690872687 12.408822619668122 117.64899999999997 12.42899999999999 C 119.48294982951096 12.502563895346285 121.19265731109468 11.504291414658963 122.02999999999997 9.870999999999988 C 122.909 7.924 121.385 6.837 119.563 6.606 Z
M 26.7 95.008 C 22.634999999999998 92.988 16.859 95.80799999999999 15.225 99.877 C 15.232999999999999 99.89399999999999 15.241999999999999 99.89399999999999 15.25 99.911 C 17.220873691324126 102.93048041631246 19.950728585019938 105.37893541192139 23.166000000000007 107.011 C 23.20789815302261 106.96155469377136 23.25673875015678 106.91844023561154 23.311 106.883 C 25.073999999999998 105.83 28.967 104.589 29.344 102.24499999999999 C 29.7 99.979 28.979 96.137 26.7 95.008 Z M 22.455 104.68599999999999 C 20.607 103.59899999999999 19.331999999999997 101.46799999999999 17.304 100.707 C 16.311999999999998 100.33 16.738999999999997 98.72099999999999 17.749 99.098 C 19.991 99.945 21.282999999999998 102.059 23.293999999999997 103.248 C 23.69109273512834 103.4810641644286 23.824064164428595 103.99190726487166 23.591 104.38900000000001 C 23.357935835571404 104.78609273512835 22.84709273512834 104.9190641644286 22.45 104.686 Z
M 66.048 61.405 C 65.148 60.694 64.516 59.779 63.678000000000004 58.992000000000004 C 62.79705711621838 58.362996151864124 62.0028816653463 57.62060013343672 61.316 56.784000000000006 C 60.871 57.23700000000001 60.416000000000004 57.691 59.972 58.144000000000005 C 60.03357171746163 58.16729929486261 60.09149219364905 58.199290255547524 60.144 58.239000000000004 C 61.803999999999995 59.61600000000001 63.113 61.353 64.756 62.748000000000005 ZM 62.48 76.91 C 60.88543056297281 75.01254418353638 59.985888363952846 72.62787545201681 59.93 70.14999999999999 C 59.254 70.85999999999999 58.578 71.562 57.902 72.27199999999999 C 58.646 74.26599999999999 58.526 76.25899999999999 60.255 77.919 C 61.307 78.929 62.736000000000004 79.297 63.789 80.264 C 68.56400000000001 84.67099999999999 61.145 89.788 57.589 91.65299999999999 C 54.56 93.23599999999999 50.649 94.353 48.313 96.976 C 46.106 99.449 45.550000000000004 102.349 44.874 105.464 C 44.174 108.64699999999999 43.222 116.05799999999999 38.61 115.733 C 34.519999999999996 115.433 35.333 108.339 35.598 105.789 C 35.846 103.428 36.641999999999996 100.34700000000001 35.836999999999996 98.062 C 34.836999999999996 95.196 31.318999999999996 93.16199999999999 29.394 90.875 C 24.2 84.739 31.067 80.11 34.1 74.83 C 36.5 70.672 38.712 66.41 41.031 62.217999999999996 C 42.409 59.727 44.42 54.900999999999996 47.192 53.55799999999999 C 49.348 52.513999999999996 50.213 54.16599999999999 50.504 56.20199999999999 C 50.803999999999995 58.340999999999994 51.625 58.60699999999999 52.985 59.93299999999999 C 53.48809974174747 60.40786725778106 53.88718034167167 60.9819712607437 54.157 61.61899999999999 C 54.857 60.907999999999994 55.568999999999996 60.19799999999999 56.278999999999996 59.47899999999999 C 53.053999999999995 58.69199999999999 52.428999999999995 55.422999999999995 52.479 52.05199999999999 C 52.505 50.913999999999994 53.121 46.35199999999999 51.144 46.489999999999995 C 47.144 46.763999999999996 43.888 51.059 41.611999999999995 53.968999999999994 C 39.69939663186085 56.18369561729128 38.213962730888696 58.73378654840553 37.230999999999995 61.489999999999995 C 36.98636405804921 62.60253713301691 36.53486434020873 63.65920251323712 35.9 64.605 C 33.778 67.232 30.299999999999997 68.456 27.171999999999997 69.431 C 18.309 72.2 9.059 76.02 6.56 85.989 C 4.31 94.956 7.51 104.089 13.379999999999999 110.983 C 19.147 117.76 28.996 124.811 38.169 120.01100000000001 C 45.315 116.272 44.809999999999995 106.96200000000002 48.985 100.96300000000001 C 53.135 94.99100000000001 60.657 93.784 65.175 88.36300000000001 C 67.015 86.17300000000002 68.666 82.54500000000002 66.108 80.11500000000001 C 64.83580340276448 79.12000975678485 63.624303685485465 78.04976262506511 62.47999999999998 76.91 Z M 31.042 102.118 C 30.614 104.818 28.252000000000002 106.13199999999999 25.984 107.318 C 26.123688948701716 107.61512709891487 26.05446531161242 107.96853198300234 25.813000000000002 108.191 C 25.60864723245354 108.3919672558806 25.43570979073236 108.62255051150883 25.3 108.875 C 25.176271129235122 109.10968445173836 24.942247573223657 109.26587392891201 24.67805249742773 109.29009349277413 C 24.4138574216318 109.31431305663625 24.155336456518814 109.20327662952748 23.991 108.995 C 23.768229074228955 109.08164331407588 23.519096019790492 109.06927758582637 23.306 108.961 C 19.721 107.233 15.819 104.238 13.806000000000001 100.746 C 13.759624340144155 100.66374603678122 13.727822429069567 100.5740917130071 13.712000000000002 100.481 C 13.471268325167273 100.29098443618093 13.38698011724912 99.96365158989684 13.506000000000002 99.681 C 15.278000000000002 94.675 23.535000000000004 89.952 28.259 94.067 C 30.41137581975042 96.15719147107141 31.444105613166034 99.14479749578902 31.042 102.118 ZM 59.314 68.4 C 59.776 67.912 60.246 67.424 60.714 66.936 C 59.234 65.242 57.454 63.85600000000001 55.845 62.290000000000006 C 55.323 62.821000000000005 54.793 63.351000000000006 54.262 63.882000000000005 C 55.956 65.15700000000001 57.223 66.91900000000001 59.011 68.057 C 59.14064169601088 68.14242690206112 59.24521903396529 68.26080982918442 59.314 68.4 ZM 40.266 91.131 C 41.399703587644865 89.92046426682376 42.64598295082547 88.82051055697737 43.987999999999985 87.846 C 41.33742996759577 83.94952131293124 37.96170122905402 80.59959518769826 34.045 77.979 C 33.386 78.929 32.702 79.853 31.966 80.743 C 31.718 81.051 31.435000000000002 81.377 31.144000000000002 81.73599999999999 C 34.345 84.722 36.886 88.325 40.266 91.131 ZM 65.979 52.1 C 65.637 52.434000000000005 65.303 52.776 64.97 53.11 C 65.689 53.957 66.202 54.933 66.87 55.81 C 67.504 56.64 68.659 56.974000000000004 69.497 57.564 C 69.53938308783714 57.60471994375164 69.57944615319391 57.64778773901017 69.617 57.693 C 69.831 57.47 70.045 57.239 70.26700000000001 57.016 C 68.8 55.492 66.767 54.14 65.979 52.1 ZM 39.051 114.09 C 41.395 113.85900000000001 42.157000000000004 109.64 42.602000000000004 107.852 C 43.672000000000004 103.513 44.002 98.379 47.668000000000006 95.273 C 51.903000000000006 91.673 57.968 90.76299999999999 61.855000000000004 86.66499999999999 C 63.68600000000001 84.731 64.455 82.37799999999999 61.607000000000006 80.85499999999999 C 60.662901621701145 80.42902008851023 59.804497505481905 79.83427108576062 59.074 79.1 C 57.525 77.329 57.26 75.57499999999999 56.626999999999995 73.615 L 55.48 74.815 C 55.565291039439835 75.18525172864368 55.59894345107845 75.56552398016 55.58 75.945 C 55.56370344125818 76.14572700901898 55.47566571748341 76.33387214450536 55.332 76.475 C 55.28242781643601 76.5814165521987 55.20923873498158 76.67512593686466 55.118 76.749 C 53.877382375055426 77.86127584810856 52.733903962264534 79.07735075463135 51.7 80.384 C 51.2 80.984 50.459 80.521 50.339000000000006 79.913 C 50.31144389281053 79.90234841010147 50.28552323806135 79.8878732392675 50.26200000000001 79.86999999999999 C 47.18200000000001 77.68799999999999 43.96200000000001 75.55799999999999 42.04800000000001 72.22899999999998 C 41.76159000364292 72.23306235475683 41.49684434623729 72.07698885088323 41.36172200510389 71.8244237272694 C 41.2265996639705 71.57185860365558 41.24368079866308 71.26500776600945 41.406000000000006 71.02899999999998 C 42.47540444893625 69.72324940307837 43.66421528659448 68.5200429399571 44.957 67.43499999999999 C 45.22740485305825 67.15623613392165 45.6621098160787 67.11993955056533 45.97500000000001 67.35 C 46.10056094226256 67.14113138756511 46.31694973224736 67.00338103339679 46.55933081371522 66.97802242876632 C 46.801711895183075 66.95266382413587 47.041926405569995 67.04264303009012 47.208000000000006 67.22099999999999 C 47.45139252472983 67.47146389115045 47.71130911246578 67.70532200350928 47.986000000000004 67.92099999999999 C 48.028719105166026 67.81941691136795 48.08973110898621 67.72654308333057 48.166000000000004 67.64699999999999 L 52.82900000000001 62.95799999999999 C 52.25600000000001 60.59599999999999 49.39800000000001 60.157999999999994 49.022000000000006 57.50699999999999 C 48.602000000000004 54.55499999999999 47.062000000000005 55.706999999999994 45.72200000000001 57.660999999999994 C 44.73800000000001 59.10699999999999 43.83100000000001 60.605 42.98400000000001 62.13699999999999 C 40.34900000000001 66.89399999999999 37.97800000000001 72.00299999999999 34.98400000000001 76.598 C 39.19757099199861 79.4289450593645 42.812632837083406 83.06167616057719 45.62299999999999 87.28900000000002 C 45.85156029559507 87.60648948825347 45.7829872841565 88.04865182824376 45.468999999999994 88.282 C 45.50376870881636 88.5907213192874 45.36530230905323 88.89342425432513 45.108999999999995 89.069 C 43.60138213776119 90.14829735789183 42.22268523652192 91.39714376003654 40.999999999999986 92.79100000000001 C 40.85767492374987 92.9676921052933 40.64084084723921 93.06756794715403 40.41405469463291 93.06089199114658 C 40.18726854202661 93.05421603513912 39.97668498061813 92.94175820220542 39.845 92.75699999999999 C 39.679994752224715 92.74059191922846 39.52280434205352 92.67861596455744 39.391 92.57799999999999 C 35.917 89.78799999999998 33.349999999999994 86.12599999999999 30.133 83.07099999999998 C 29.114 84.57699999999998 28.421 86.28799999999998 29.362 87.89699999999998 C 30.15955131220588 89.24525927874409 31.134977787566974 90.48001465496841 32.262 91.56799999999998 C 33.785000000000004 93.06799999999998 35.976 94.45999999999998 36.934 96.41999999999999 C 38.602999999999994 99.83399999999999 37.294 103.975 37.114 107.58599999999998 C 37.049 108.955 36.586 114.338 39.051 114.09 Z M 47.1 60.866 C 47.45943601430538 60.55391968399764 47.93959990383986 60.41893090527442 48.409 60.498 C 48.931 60.54 49.717999999999996 60.686 49.83 61.318999999999996 C 49.975 62.18299999999999 49.248 62.534 48.546 62.739999999999995 C 48.41488924989865 62.772140635064304 48.278291014797965 62.77487259976632 48.146 62.748 C 48.0250674368033 62.7338183481809 47.906834345147416 62.70215478517334 47.795 62.653999999999996 C 47.1 62.312 46.487 61.6 47.1 60.866 Z M 36.184 93.647 C 34.464 91.647 32.864 88.88900000000001 30.366 87.786 C 29.381999999999998 87.349 30.229 85.912 31.204 86.348 C 33.857 87.52 35.542 90.348 37.365 92.466 C 38.067 93.279 36.886 94.46 36.184 93.647 Z M 41.916999999999994 93.83500000000001 C 42.5997621393622 93.44470457068559 43.45006002766437 93.50225834522992 44.074 93.98100000000001 C 44.845958147967195 94.0174224496549 45.52971847774624 94.49046662786185 45.836 95.2 C 46.01662658419185 95.52884848403636 45.964950282504255 95.93660680203999 45.708 96.21000000000001 C 45.15973547363436 96.80756691045926 44.43352213275623 97.21257724783939 43.637 97.36500000000001 C 43.339257374023084 97.53609143117195 42.96946411283451 97.51972544911725 42.688 97.32300000000001 C 42.26452152888876 97.19758714713693 41.907662866911416 96.91008772157613 41.695 96.52300000000001 C 41.31 95.872 41.122 94.28 41.917 93.835 Z M 39.26499999999999 100.55300000000001 C 39.39654136156774 100.33157932373653 39.62238837114896 100.18273979068294 39.877740015125504 100.14918709185639 C 40.13309165910206 100.11563439302984 40.38972290823428 100.20107724121046 40.57399999999999 100.38100000000001 C 40.85599999999999 100.65500000000002 41.30099999999999 100.79200000000002 41.49799999999999 101.14300000000001 C 41.81499999999999 101.69900000000001 41.41299999999999 102.21300000000001 41.12999999999999 102.67500000000001 C 40.944938987526605 102.99748261059825 40.5620935731158 103.14995784058004 40.20599999999999 103.043 C 40.13500252954368 103.06979290210673 40.059878268190126 103.08400560020064 39.98399999999999 103.08500000000001 C 39.53765996937888 103.07999475129694 39.17122888321287 102.73059681454747 39.14499999999999 102.28500000000001 C 39.14499999999999 102.33600000000001 39.08499999999999 102.114 39.075999999999986 102.08000000000001 C 39.022600896280345 101.93040782466743 38.98538838585876 101.77552332183164 38.96499999999999 101.61800000000001 C 38.941076732718486 101.23922405172699 39.046887230922835 100.86359678310156 39.265 100.553 Z M 39.28999999999999 109.153 C 39.349999999999994 109.22200000000001 39.401999999999994 109.299 39.46199999999999 109.367 C 39.63517713876179 109.3461809310884 39.80962588027036 109.3378261063035 39.98399999999999 109.342 C 40.280319710835634 109.34452797511818 40.553102119461535 109.50391612862714 40.700787261439686 109.76082245499303 C 40.84847240341783 110.01772878135891 40.84893392633168 110.33366328870393 40.701999999999984 110.591 C 40.359999999999985 111.267 39.79499999999999 111.866 39.00199999999998 111.472 C 38.56499999999998 111.25 38.40199999999998 110.642 38.11199999999998 110.33399999999999 C 37.374 109.546 38.555 108.365 39.29 109.152 ZM 55.839 72.032 C 54.111 70.49199999999999 52.074 69.363 50.671 67.497 C 50.226 67.942 49.79 68.387 49.345 68.832 C 49.327999999999996 68.84899999999999 49.311 68.84899999999999 49.293 68.866 C 51.202 70.133 53.538 71.425 54.753 73.166 C 55.112 72.785 55.48 72.409 55.839 72.032 ZM 58.176 69.5 C 56.276 68.284 54.984 66.385 53.144000000000005 65.11 C 53.128843857721854 65.09094975794481 53.111752384770234 65.07352315807256 53.093 65.05799999999999 C 52.673 65.48599999999999 52.254000000000005 65.90599999999999 51.826 66.333 C 51.865271276145684 66.36230839619968 51.9026771620434 66.39403660298792 51.938 66.428 C 53.230000000000004 68.267 55.318000000000005 69.363 56.986000000000004 70.828 C 57.405 70.391 57.816 69.955 58.23500000000001 69.519 C 58.218 69.508 58.193 69.508 58.176 69.5 Z
M 61.872 65.726 C 62.445 65.135 63.019 64.536 63.592 63.946 C 61.940999999999995 62.550999999999995 60.631 60.806 58.971 59.419 C 58.92355799373424 59.37760881391682 58.88334109875297 59.32860503431779 58.852 59.273999999999994 C 58.244 59.88199999999999 57.635999999999996 60.489 57.028999999999996 61.105 C 58.629 62.663 60.4 64.04 61.872 65.726 Z
M 92.292 25.962 C 92.23690479032118 25.92707715183159 92.18532961070606 25.886888700183448 92.138 25.842 C 91.299 26.680999999999997 90.461 27.528 89.614 28.366 C 90.872 29.744 92.455 30.745 93.807 32.012 C 94.542 31.259 95.27 30.489 95.997 29.718 C 95.93459130770226 29.660645058053646 95.88250030256951 29.59299440203709 95.843 29.518 C 95.05679866148695 27.99305817457927 93.81583408123358 26.750346249098854 92.292 25.962 ZM 83.119 34.887 C 83.23499594081233 34.96218224250182 83.32697181956205 35.06908250912413 83.384 35.195 C 84.1484005184324 36.67285474792124 85.21557477960289 37.973090054634724 86.516 39.011 C 87.278 38.275000000000006 88.06500000000001 37.565000000000005 88.84400000000001 36.855000000000004 C 87.65400000000001 35.477000000000004 86.27600000000001 34.288000000000004 85.138 32.855000000000004 C 84.462 33.535 83.8 34.211 83.119 34.887 ZM 86.3 31.7 L 86.377 31.777 C 87.464 33.223 88.884 34.361000000000004 90.065 35.722 C 90.245 35.551 90.43299999999999 35.388 90.613 35.208 C 91.297 34.558 91.956 33.873999999999995 92.624 33.198 C 91.27199999999999 31.931 89.689 30.93 88.439 29.552 C 87.723 30.266 87.012 30.976 86.3 31.7 ZM 98.915 19.048 Q 97.554 20.407999999999998 96.20200000000001 21.769 C 97.85400000000001 22.453999999999997 98.60700000000001 24.328 99.98500000000001 25.38 L 100.01900000000002 25.413999999999998 C 100.90000000000002 24.464 101.78200000000002 23.514 102.66300000000003 22.581999999999997 C 101.60518237915223 21.482667301818793 100.46376549600936 20.466960069543454 99.24900000000002 19.544 C 99.07941633598682 19.426391230684747 98.96020728372599 19.249362218944142 98.915 19.048 ZM 97.229 24.832 C 96.759 24.285 96.202 23.489 95.492 23.266000000000002 C 95.30578693055085 23.21231293914183 95.1467999460509 23.09012518925648 95.04700000000001 22.924000000000003 C 94.47400000000002 23.497000000000003 93.909 24.071 93.33600000000001 24.636000000000003 C 94.95215621418149 25.526253638967237 96.28395848079076 26.854936118903023 97.17800000000001 28.468999999999994 C 97.751 27.853 98.32500000000002 27.228 98.89800000000001 26.612000000000002 C 98.29389331391317 26.065339592804953 97.73568517012652 25.470006761205045 97.229 24.832 ZM 78.909 39.636 C 78.78701413229419 39.588994782382464 78.67403083891935 39.52134011569095 78.575 39.436 L 77.18900000000001 40.822 C 77.27224072114147 40.89463365487676 77.34168738892184 40.98169606277702 77.394 41.079 C 78.26700000000001 42.79 80.03 43.792 81.125 45.349000000000004 C 81.733 44.579 82.332 43.800000000000004 82.931 43.021 C 81.758 41.732 80.6 40.166 78.909 39.636 ZM 70.617 47.431 C 70.19800000000001 47.858999999999995 69.77000000000001 48.287 69.342 48.714999999999996 C 70.9 50.187 72.406 51.7 73.826 53.3 L 75.315 51.733999999999995 C 73.68120140505012 50.37983727254689 72.11624155159133 48.94470667543177 70.626 47.434 C 70.62381335984395 47.431371686305035 70.62032630034182 47.43020933313766 70.617 47.431 ZM 73.338 44.693 C 72.81599999999999 45.214999999999996 72.303 45.727999999999994 71.78999999999999 46.25 C 71.79799999999999 46.25 71.79799999999999 46.259 71.80699999999999 46.259 C 73.29599999999999 47.748 74.82699999999998 49.185 76.45299999999999 50.52 C 76.853 50.101000000000006 77.25299999999999 49.682 77.65999999999998 49.254000000000005 C 76.077 47.927 74.305 46.55 73.338 44.693 ZM 76.008 42.015 L 74.519 43.5 C 74.60161972479034 43.56842143975925 74.66963492805972 43.65276029181328 74.71900000000001 43.748 C 75.60000000000001 45.51 77.319 46.794 78.80900000000001 48.043 C 78.96300000000001 47.864 79.13400000000001 47.701 79.28800000000001 47.53 C 79.55400000000002 47.248000000000005 79.793 46.948 80.04100000000001 46.657000000000004 C 79.99215897749595 46.617519784527836 79.94907556334788 46.57140706782248 79.91300000000001 46.52 C 78.866 44.8 76.975 43.812 76.008 42.015 ZM 81.947 36.059 C 81.236 36.769 80.518 37.488 79.807 38.207 C 81.527 38.917 82.73400000000001 40.372 83.992 41.724000000000004 C 84.24000000000001 41.416000000000004 84.492 41.108000000000004 84.753 40.80800000000001 C 84.942 40.59400000000001 85.147 40.40800000000001 85.344 40.20100000000001 C 83.93873522545088 39.06877301480174 82.7822786793179 37.658692645628115 81.947 36.059 ZM 68.17 49.9 C 67.845 50.225 67.528 50.55 67.203 50.867 C 67.30673177257701 50.968857120740694 67.38338417161592 51.09500703306033 67.426 51.233999999999995 C 67.965 53.150999999999996 70.087 54.443 71.426 55.833999999999996 C 71.845 55.388999999999996 72.264 54.961 72.684 54.523999999999994 C 71.25 52.9 69.736 51.376 68.17 49.9 ZM 99.953 12.949 C 100.15888060532474 13.228221353147324 100.31360989196988 13.541742839872505 100.41 13.875 C 100.53022370323939 14.262420303718557 100.936374031899 14.48435428713377 101.32735587088207 14.37627361291592 C 101.71833770986515 14.26819293869807 101.95283246151158 13.869162872268058 101.857 13.475 C 101.72820691650071 13.015589694126112 101.52227509771376 12.581408322496467 101.248 12.190999999999997 C 100.694 11.411 99.392 12.16 99.953 12.949 ZM 103.891 12.36 C 104.18471826915173 12.650268767483974 104.65728173084828 12.650268767483974 104.95100000000001 12.36 C 105.23455718954429 12.063169817599771 105.23455718954429 11.595830182400228 104.95100000000001 11.299 C 104.78155166024592 11.071818291964375 104.64675045289029 10.820751043264504 104.551 10.554 C 104.217 9.654 102.766 10.046 103.104 10.954 C 103.29177719993913 11.46066916758755 103.55728990813714 11.935015886426662 103.891 12.359999999999998 ZM 106.362 9.79 Q 106.649 10.376999999999999 106.93599999999999 10.962 C 107.36099999999999 11.829 108.65499999999999 11.068999999999999 108.231 10.205 L 107.657 9.033 C 107.232 8.167 105.938 8.926 106.362 9.79 ZM 109.36 8.124 Q 109.611 8.541 109.86 8.957 C 110.06903977781096 9.315985087390015 110.52951491260998 9.437539777810954 110.8885 9.2285 C 111.24748508739002 9.019460222189045 111.36903977781095 8.558985087390017 111.16 8.200000000000001 L 110.66 7.367000000000001 C 110.45096022218904 7.008014912609986 109.99048508739001 6.886460222189047 109.6315 7.095500000000002 C 109.27251491260998 7.304539777810958 109.15096022218904 7.7650149126099866 109.36 8.124 ZM 111.447 6.865 C 111.56822370300107 7.1977100655718225 111.74284449670553 7.50844726133219 111.964 7.785000000000001 C 112.25805948244724 8.075386460788181 112.73094051755277 8.075386460788181 113.025 7.785 C 113.30855718954429 7.488169817599772 113.30855718954429 7.020830182400229 113.025 6.724 C 112.969200654795 6.644718810779467 112.92508314380876 6.5578308883790895 112.894 6.466 C 112.567 5.566 111.116 5.955 111.447 6.865 ZM 114.7 4.886 C 114.59639131152159 5.396686875005877 114.67531137582472 5.927539325475305 114.923 6.385999999999999 C 115.373 7.24 116.668 6.486 116.218 5.6290000000000004 C 116.15526118979082 5.526721123008772 116.12982360684482 5.405892604015308 116.146 5.287000000000001 C 116.31 4.341 114.865 3.935 114.7 4.886 ZM 50.141 71.485 C 48.82558820457942 70.67015047614271 47.575190439209265 69.75475232598669 46.400999999999996 68.747 C 46.25684466480571 68.95820461998616 46.014557611720875 69.08085772318331 45.75899999999999 69.072 C 45.72513534892369 69.07009493311686 45.691591782875356 69.06439252688865 45.65899999999999 69.055 C 44.86317502990969 69.73339590264221 44.10346561279718 70.4530503416996 43.382999999999996 71.21100000000001 C 45.144999999999996 74.394 48.199999999999996 76.37100000000001 51.101 78.433 C 51.117405614847556 78.44143286767859 51.132011049523626 78.45298135091082 51.144 78.46700000000001 C 51.98203914103374 77.43503915871763 52.90601073657298 76.47594192323209 53.90599999999999 75.6 C 53.76 73.786 51.467 72.4 50.141 71.485 ZM 63.789 54.3 C 63.361000000000004 54.727999999999994 62.933 55.156 62.514 55.583999999999996 C 62.548 55.635 62.599000000000004 55.669999999999995 62.634 55.729 C 63.121 56.662 64.148 57.073 64.85 57.809 C 65.54823742866586 58.68909182898683 66.33688794850897 59.49349524914132 67.20299999999999 60.209 C 67.62199999999999 59.772 68.04199999999999 59.336 68.46999999999998 58.891 C 67.47095561007987 58.42522007208152 66.55004815221699 57.807571150709016 65.73999999999998 57.059999999999995 C 65.013 56.193 64.516 55.158 63.789 54.3 Z" fill="#000000"/>
</svg>