<svg xmlns="http://www.w3.org/2000/svg" viewBox="5 7 90 86.1">
  <path d="M 93.7 88 L 88.4 57.4 C 89 55.199999999999996 89.4 52.9 89.60000000000001 50.6 C 89.80000000000001 50.7 90.00000000000001 50.800000000000004 90.30000000000001 50.800000000000004 L 90.70000000000002 50.800000000000004 C 91.30000000000001 50.800000000000004 91.80000000000001 50.300000000000004 91.80000000000001 49.7 L 91.80000000000001 44 C 91.80000000000001 43.4 91.30000000000001 42.9 90.70000000000002 42.9 L 90.30000000000001 42.9 C 90.00000000000001 42.9 89.80000000000001 43 89.60000000000001 43.1 C 88.80000000000001 34.8 85.50000000000001 27.3 80.50000000000001 21.3 C 80.70000000000002 21.2 80.80000000000001 21.2 81.00000000000001 21 L 81.30000000000001 20.7 C 81.70000000000002 20.3 81.70000000000002 19.5 81.30000000000001 19.099999999999998 L 77.30000000000001 15.099999999999998 C 76.9 14.699999999999998 76.10000000000001 14.699999999999998 75.70000000000002 15.099999999999998 L 75.40000000000002 15.399999999999999 C 75.30000000000003 15.499999999999998 75.20000000000002 15.7 75.10000000000002 15.899999999999999 C 68.30000000000003 10.399999999999999 59.60000000000002 6.999999999999998 50.200000000000024 6.999999999999998 L 50.200000000000024 6.999999999999998 C 50.200000000000024 6.999999999999998 48.700000000000024 6.999999999999998 48.10000000000002 7.099999999999998 C 39.300000000000026 7.499999999999998 31.400000000000023 10.699999999999998 25.00000000000002 15.899999999999999 C 24.90000000000002 15.799999999999999 24.90000000000002 15.599999999999998 24.70000000000002 15.499999999999998 L 24.40000000000002 15.199999999999998 C 24.00000000000002 14.799999999999997 23.20000000000002 14.799999999999997 22.80000000000002 15.199999999999998 L 18.80000000000002 19.199999999999996 C 18.40000000000002 19.599999999999994 18.40000000000002 20.399999999999995 18.80000000000002 20.799999999999997 L 19.10000000000002 21.099999999999998 C 19.20000000000002 21.2 19.30000000000002 21.299999999999997 19.40000000000002 21.299999999999997 C 14.30000000000002 27.299999999999997 11.10000000000002 34.9 10.30000000000002 43.099999999999994 C 10.100000000000021 42.99999999999999 9.90000000000002 42.89999999999999 9.70000000000002 42.89999999999999 L 9.30000000000002 42.89999999999999 C 8.70000000000002 42.89999999999999 8.20000000000002 43.39999999999999 8.20000000000002 43.99999999999999 L 8.20000000000002 49.699999999999996 C 8.20000000000002 50.3 8.70000000000002 50.8 9.30000000000002 50.8 L 9.70000000000002 50.8 C 9.90000000000002 50.8 10.100000000000021 50.699999999999996 10.30000000000002 50.599999999999994 C 10.50000000000002 52.89999999999999 10.90000000000002 55.199999999999996 11.600000000000021 57.39999999999999 L 6.3 88 C 5.5 88.2 5 88.7 5 89.5 L 5 91.4 C 5 92.2 5.7 92.9 6.5 92.9 L 8 92.9 C 8.8 92.9 9.5 92.2 9.5 91.4 L 9.5 89.5 C 9.5 88.8 9.1 88.3 8.5 88.1 L 13.1 62 C 14.5 65.6 16.5 68.8 18.8 71.8 C 18.7 71.89999999999999 18.6 71.89999999999999 18.5 72 L 18.2 72.3 C 17.8 72.7 17.8 73.5 18.2 73.89999999999999 L 22.2 77.89999999999999 C 22.599999999999998 78.3 23.4 78.3 23.8 77.89999999999999 L 24.1 77.6 C 24.200000000000003 77.5 24.200000000000003 77.39999999999999 24.3 77.39999999999999 C 31.3 83.3 40.2 86.8 50 86.8 C 50.6 86.8 51.3 86.8 51.9 86.8 C 52.8 86.8 53.8 86.7 54.699999999999996 86.6 C 54.699999999999996 86.6 54.8 86.6 54.8 86.6 C 63.3 85.6 70.9 82 76.8 76.6 C 76.89999999999999 76.69999999999999 77 76.89999999999999 77.1 77 L 77.39999999999999 77.3 C 77.89999999999999 77.7 78.6 77.7 78.99999999999999 77.2 L 82.79999999999998 73 C 83.19999999999999 72.5 83.19999999999999 71.8 82.69999999999999 71.4 L 82.39999999999999 71.10000000000001 C 82.3 71.00000000000001 82.1 70.9 81.99999999999999 70.9 C 83.99999999999999 68.2 85.69999999999999 65.30000000000001 86.89999999999999 62.10000000000001 L 91.49999999999999 88.30000000000001 C 90.89999999999999 88.50000000000001 90.49999999999999 89.00000000000001 90.49999999999999 89.70000000000002 L 90.49999999999999 91.60000000000002 C 90.49999999999999 92.40000000000002 91.19999999999999 93.10000000000002 91.99999999999999 93.10000000000002 L 93.49999999999999 93.10000000000002 C 94.29999999999998 93.10000000000002 94.99999999999999 92.40000000000002 94.99999999999999 91.60000000000002 L 94.99999999999999 89.70000000000002 C 95 88.7 94.5 88.2 93.7 88 z M 49 83.3 C 48 83.3 46.9 83.2 45.9 83.1 L 45.9 74.5 L 49 74.5 L 49 83.3 z M 54.3 83.1 C 53.5 83.19999999999999 52.599999999999994 83.3 51.699999999999996 83.3 C 51.49999999999999 83.3 51.4 83.3 51.199999999999996 83.3 L 51.199999999999996 74.5 L 54.199999999999996 74.5 L 54.199999999999996 83.1 z M 56.6 82.7 L 56.6 74.5 C 56.6 73.2 55.6 72.2 54.300000000000004 72.2 L 51.300000000000004 72.2 L 51.300000000000004 53.6 L 51.800000000000004 53.6 C 53.7 53.6 55.2 52.1 55.2 50.2 L 55.2 45.800000000000004 C 55.2 43.900000000000006 53.7 42.400000000000006 51.800000000000004 42.400000000000006 L 48.300000000000004 42.400000000000006 C 46.400000000000006 42.400000000000006 44.900000000000006 43.900000000000006 44.900000000000006 45.800000000000004 L 44.900000000000006 50.2 C 44.900000000000006 52.1 46.400000000000006 53.6 48.300000000000004 53.6 L 49 53.6 L 49 72.2 L 45.9 72.2 C 44.6 72.2 43.6 73.2 43.6 74.5 L 43.6 82.7 C 27.1 79.8 14.400000000000002 65.9 13.600000000000001 48.6 C 13.100000000000001 38.900000000000006 16.5 29.6 23 22.400000000000002 C 29.5 15.200000000000003 38.5 11.000000000000002 48.2 10.500000000000002 C 48.800000000000004 10.500000000000002 49.400000000000006 10.500000000000002 50 10.500000000000002 C 69.4 10.500000000000002 85.4 25.700000000000003 86.4 45.2 C 87.3 63.6 74.2 79.5 56.6 82.7 z" fill="#000000"/>
</svg>