<svg xmlns="http://www.w3.org/2000/svg" viewBox="5.10014 4.72169 89 90">
  <path d="M 59.0746381 18.5308869 C 61.9733699 2.58504682 83.4435481 -0.0848000545 91.3495705 13.3215196 C 99.2555929 26.7278392 89.384636 43.1759705 71.1219103 40.3843557 C 69.2810368 37.19319 62.8747203 26.1442126 59.0746381 18.5308869 L 59.0746381 18.5308869 Z M 51.8199357 24.7284266 L 62.4035273 42.8415862 C 62.4035273 42.8415862 27.01705 60.8938619 22.3234908 62.5282106 C 17.6299316 64.1625593 14.1237789 61.0513035 14.1237789 61.0513035 C 14.1237789 61.0513035 9.69909734 63.958613 9.69909734 71.4010689 C 9.69909734 74.7863016 10.4422703 78.1116019 14.9313673 79.3449739 C 19.4204643 80.5783459 25.2220689 79.0602947 29.5467019 78.6091365 C 33.8713349 78.1579782 39.8881343 79.9830644 39.8881343 79.9830644 L 39.8881343 61.3785538 L 52.2264726 55.2516487 L 52.4798445 94.631319 L 39.7068157 94.7216934 L 39.7068163 84.5291318 C 39.7068163 84.5291318 37.3546685 82.3351757 29.9835396 82.9399703 C 22.6124107 83.544765 17.7179668 84.7067888 13.8465499 83.8270659 C 9.97513291 82.947343 4.71303998 79.3818371 5.12267966 71.1083035 C 5.53231935 62.8347699 11.0881026 57.2042103 11.0881026 57.2042103 C 11.0881026 57.2042103 10.1865134 51.5600945 13.4781848 48.8940513 C 16.7698562 46.2280081 51.8199357 24.7284266 51.8199357 24.7284266 L 51.8199357 24.7284266 Z" fill="#000000"/>
</svg>