<svg xmlns="http://www.w3.org/2000/svg" viewBox="10 9.96819 80 80.03">
  <path d="M 86.9375 9.96875 C 86.832883 9.9737028 86.728526 9.9841385 86.625 10 C 86.55173 10.0077 86.47875 10.01815 86.40625 10.03125 L 36.40625 20.03125 C 35.052639 20.304612 33.987194 21.619122 34 23 L 34 63.03125 C 31.48775 61.134736 28.371044 60 25 60 C 16.751263 60 10 66.7512 10 75 C 10 83.2487 16.751263 90 25 90 C 33.248738 90 40 83.2487 40 75 C 40 73.240733 40 42.46875 40 42.46875 L 84 33.65625 L 84 53.03125 C 81.48775 51.134736 78.371044 50 75 50 C 66.751262 50 60 56.7512 60 65 C 60 73.2487 66.751262 80 75 80 C 83.248737 80 90 73.2487 90 65 C 90 63.611209 90 13 90 13 C 90.01687 11.397812 88.53943 9.9354439 86.9375 9.96875 z M 84 16.65625 L 84 27.5 L 40 36.3125 L 40 25.46875 z M 75 56 C 80.006097 56 84 59.9939 84 65 C 84 70.0061 80.006097 74 75 74 C 69.993902 74 66 70.0061 66 65 C 66 59.9939 69.993902 56 75 56 z M 25 66 C 30.006098 66 34 69.9939 34 75 C 34 80.0061 30.006098 84 25 84 C 19.993903 84 16 80.0061 16 75 C 16 69.9939 19.993903 66 25 66 z" fill="#000000"/>
</svg>