<svg xmlns="http://www.w3.org/2000/svg" viewBox="2.095 0.785997 87.52 89.28">
  <path d="M 65.501 34.67 L 58.97800000000001 34.67 C 53.284000000000006 34.67 50.23000000000001 29.905 50.23000000000001 24.627000000000002 C 50.23000000000001 -7.135999999999999 2.095000000000013 -7.185999999999996 2.095000000000013 24.627000000000002 C 2.095000000000013 45.25 2.095000000000013 65.92 2.095000000000013 86.541 L 2.095000000000013 86.64 C 2.095000000000013 88.546 3.658000000000013 90.061 5.565000000000014 90.061 L 86.07200000000002 90.061 L 86.17100000000002 90.061 C 88.10200000000002 90.061 89.61600000000001 88.546 89.61600000000001 86.64 C 89.61600000000001 77.355 89.61600000000001 68.068 89.61600000000001 58.762 C 89.616 45.542 78.768 34.67 65.501 34.67 z M 82.727 83.218 L 8.984 83.218 L 8.984 68.827 L 13.285 68.827 L 13.285 75.181 C 13.285 76.329 14.213000000000001 77.258 15.313 77.258 C 16.486 77.258 17.415 76.329 17.415 75.181 L 17.415 68.827 L 20.91 68.827 L 20.91 75.181 C 20.91 76.329 21.839 77.258 22.938 77.258 C 24.108999999999998 77.258 25.038 76.329 25.038 75.181 L 25.038 68.827 L 36.156 68.827 L 36.156 75.181 C 36.156 76.329 37.085 77.258 38.208999999999996 77.258 C 39.357 77.258 40.285999999999994 76.329 40.285999999999994 75.181 L 40.285999999999994 68.827 L 43.778999999999996 68.827 L 43.778999999999996 75.181 C 43.778999999999996 76.329 44.708 77.258 45.830999999999996 77.258 C 46.979 77.258 47.907999999999994 76.329 47.907999999999994 75.181 L 47.907999999999994 68.827 L 51.401999999999994 68.827 L 51.401999999999994 75.181 C 51.401999999999994 76.329 52.330999999999996 77.258 53.504999999999995 77.258 C 54.60399999999999 77.258 55.532 76.329 55.532 75.181 L 55.532 68.827 L 66.673 68.827 L 66.673 75.181 C 66.673 76.329 67.57900000000001 77.258 68.75 77.258 C 69.85 77.258 70.78 76.329 70.78 75.181 L 70.78 68.827 L 74.298 68.827 L 74.298 75.181 C 74.298 76.329 75.249 77.258 76.375 77.258 C 77.475 77.258 78.403 76.329 78.403 75.181 L 78.403 68.827 L 82.727 68.827 L 82.727 83.218 z M 82.727 64.697 L 8.984 64.697 L 8.984 24.627000000000002 C 8.984 1.9040000000000035 43.363 1.929000000000002 43.363 24.627000000000002 C 43.363 33.692 49.446 41.584 58.978 41.584 L 65.501 41.584 C 74.956 41.584 82.727 49.328 82.727 58.762 L 82.727 64.697 zM 33.877 42.068 C 33.056000000000004 41.245999999999995 31.723000000000003 41.245999999999995 30.902 42.068 L 21.548000000000002 51.422 C 20.726000000000003 52.244 20.726000000000003 53.574999999999996 21.548000000000002 54.397999999999996 C 21.958000000000002 54.809 22.497000000000003 55.013999999999996 23.035000000000004 55.013999999999996 C 23.574000000000005 55.013999999999996 24.112000000000002 54.809 24.523000000000003 54.397999999999996 L 33.877 45.044 C 34.699 44.222 34.699 42.889 33.877 42.068 zM 46.682 41.955 L 30.902 57.735 C 30.080000000000002 58.556 30.080000000000002 59.888 30.902 60.71 C 31.313000000000002 61.121 31.851000000000003 61.327 32.389 61.327 C 32.928000000000004 61.327 33.466 61.120999999999995 33.877 60.71 L 49.657000000000004 44.931 C 50.478 44.11 50.478 42.777 49.657000000000004 41.955999999999996 C 48.835 41.132 47.503 41.132 46.682 41.955 zM 59.127 46.747 L 54.453 51.422 C 53.631 52.244 53.631 53.574999999999996 54.453 54.397999999999996 C 54.863 54.809 55.402 55.013999999999996 55.940000000000005 55.013999999999996 C 56.47800000000001 55.013999999999996 57.016000000000005 54.809 57.42700000000001 54.397999999999996 L 62.102000000000004 49.723 C 62.923 48.902 62.923 47.569 62.102000000000004 46.747 C 61.28 45.926 59.949 45.926 59.127 46.747 z" fill="#000000"/>
</svg>