<svg xmlns="http://www.w3.org/2000/svg" viewBox="108.09 200.16 802.8 607.8">
  <path d="M 808.9 428.27 L 791.54 418.34 L 791.52 418.37 L 791.74 417.95 C 792.15 417.18 792.55 416.39 792.93 415.6 C 793.19 415.08 793.39 414.64 793.6 414.2 C 793.62 414.17 793.63 414.13 793.65 414.1 C 793.9 413.59 794.13 413.08 794.35 412.56 C 794.39 412.48 794.42 412.4 794.46 412.32 C 794.67 411.87 794.86 411.41 795.05 410.96 C 795.07 410.92 795.08 410.88 795.1 410.84 C 795.28 410.43 795.45 410.01 795.61 409.59 C 795.66 409.46 795.72 409.33 795.77 409.19 L 795.81 409.11 C 795.83 409.07 795.84 409.03 795.86 408.99 C 796.03 408.57 796.19 408.15 796.34 407.74 C 796.35 407.7 796.37 407.67 796.38 407.63 C 796.57 407.13 796.75 406.62 796.93 406.13 C 796.95 406.09 796.96 406.04 796.98 406 C 797.17 405.49 797.34 404.98 797.51 404.46 C 797.53 404.4 797.55 404.34 797.57 404.28 C 797.75 403.75 797.91 403.23 798.07 402.7 L 798.1 402.61 C 798.25 402.12 798.4 401.63 798.54 401.14 C 798.55 401.09 798.57 401.05 798.58 401 C 798.73 400.47 798.88 399.94 799.01 399.41 C 799.16 398.84 799.3 398.3 799.43 397.74 C 799.44 397.7 799.45 397.66 799.46 397.63 C 799.59 397.09 799.71 396.55 799.83 396.01 L 819.36 400.31 C 819.22 400.93 819.08 401.56 818.94 402.18 C 818.77 402.94 818.57 403.7 818.38 404.44 C 818.21 405.11 818.02 405.81 817.82 406.5 C 817.64 407.15 817.44 407.81 817.24 408.46 L 817.21 408.57 C 817 409.26 816.79 409.94 816.56 410.62 C 816.32 411.37 816.07 412.11 815.8 412.85 C 815.59 413.45 815.36 414.07 815.13 414.69 C 814.92 415.27 814.7 415.84 814.47 416.41 C 814.39 416.62 814.3 416.84 814.21 417.05 C 813.98 417.63 813.75 418.2 813.5 418.77 C 813.24 419.39 812.97 420.01 812.69 420.62 C 812.38 421.34 812.05 422.06 811.7 422.78 C 811.45 423.3 811.21 423.81 810.95 424.33 C 810.49 425.29 809.96 426.34 809.42 427.36 C 809.4 427.39 809.39 427.42 809.37 427.46 L 809.3 427.6 C 809.15 427.82 809.03 428.04 808.9 428.27 z M 745.79 280.53 L 687.74 285.94 C 627.47 261.1 549.7 246.14 464.8 246.14 C 286.01 246.14 138.83 312.49 120.11 397.72 C 120.08 397.87 120.05 398.01 120.02 398.16 C 119.87 397.47 119.73 396.79 119.6 396.1 C 119.58 396.01 119.56 395.91 119.55 395.82 C 119.42 395.11 119.29 394.41 119.18 393.7 C 119.06 392.96 118.95 392.21 118.85 391.46 C 118.65 390.02 118.5 388.57 118.38 387.12 C 118.36 386.95 118.35 386.77 118.34 386.59 C 118.29 385.96 118.25 385.33 118.21 384.69 C 118.21 384.64 118.21 384.58 118.2 384.53 C 118.17 383.89 118.14 383.25 118.13 382.6 C 118.12 382.49 118.12 382.38 118.12 382.27 C 118.1 381.56 118.09 380.85 118.09 380.14 C 118.09 373.92 118.77 367.77 120.11 361.72 C 138.83 276.49 286.01 210.14 464.8 210.14 C 580.41 210.14 682.8 237.88 745.79 280.53 z M 120.02 408.16 C 115.32 408.16 111.24 404.88 110.25 400.28 C 110.09 399.54 109.94 398.8 109.8 398.06 C 109.76 397.87 109.73 397.67 109.69 397.48 L 109.68 397.44 C 109.55 396.71 109.41 395.98 109.3 395.25 C 109.17 394.48 109.05 393.64 108.94 392.8 C 108.74 391.35 108.57 389.8 108.43 388.08 C 108.4 387.82 108.38 387.55 108.37 387.28 C 108.32 386.63 108.28 385.99 108.24 385.33 C 108.24 385.3 108.24 385.27 108.24 385.24 C 108.23 385.17 108.23 385.09 108.23 385.02 C 108.2 384.35 108.17 383.67 108.15 382.99 C 108.14 382.81 108.14 382.64 108.14 382.46 C 108.12 381.69 108.11 380.93 108.11 380.16 C 108.11 373.26 108.87 366.34 110.37 359.58 C 120.17 314.98 162.08 274.23 228.4 244.85 C 293.44 216.03 377.4 200.16 464.82 200.16 C 521.39 200.16 577.65 206.91 627.53 219.67 C 676.14 232.11 718.98 250.3 751.42 272.27 C 754.92 274.64 756.55 278.95 755.5 283.04 C 754.45 287.13 750.95 290.12 746.74 290.51 L 688.69 295.92 C 687.07 296.07 685.45 295.83 683.95 295.21 C 622.86 270.03 545.04 256.17 464.82 256.17 C 380.13 256.17 299.04 271.43 236.5 299.14 C 176.19 325.86 138.34 361.62 129.91 399.83 L 129.84 400.16 C 128.91 404.8 124.84 408.15 120.11 408.19 C 120.07 408.16 120.04 408.16 120.02 408.16 z M 108.38 386.43 C 108.38 386.44 108.38 386.44 108.38 386.45 C 108.39 386.45 108.38 386.44 108.38 386.43 z M 108.38 386.42 C 108.38 386.42 108.38 386.42 108.38 386.42 C 108.38 386.42 108.38 386.42 108.38 386.42 z M 108.38 386.4 L 108.38 386.4 L 108.38 386.4 z M 108.21 384.69 C 108.21 384.69 108.21 384.7 108.21 384.69 C 108.21 384.7 108.21 384.69 108.21 384.69 z M 464.8 220.14 C 380.11 220.14 299.02 235.4 236.48 263.11 C 186.17 285.4 151.5 313.97 136.48 345.01 C 157.03 320.56 188.23 298.61 228.37 280.83 C 293.41 252.01 377.37 236.14 464.79 236.14 C 546.57 236.14 626.15 250.2 689.24 275.75 L 714.38 273.41 C 650.67 239.75 560.02 220.14 464.8 220.14 z M 811.5 380.14 C 811.5 380.85 811.49 381.56 811.47 382.27 C 811.47 382.38 811.47 382.49 811.46 382.6 C 811.45 383.25 811.42 383.89 811.39 384.53 C 811.38 384.58 811.38 384.64 811.38 384.69 C 811.34 385.33 811.3 385.96 811.25 386.59 C 811.18 387.58 811.09 388.56 810.98 389.54 C 810.91 390.18 810.83 390.82 810.74 391.46 C 810.64 392.21 810.53 392.96 810.41 393.7 C 810.3 394.41 810.17 395.11 810.04 395.82 C 810.03 395.91 810.01 396.01 809.99 396.1 C 809.86 396.79 809.72 397.47 809.57 398.16 C 809.54 398.01 809.51 397.87 809.48 397.72 C 802.38 365.38 776.78 335.75 737.97 311.45 L 779.63 308.86 C 795.09 325.24 805.37 343.02 809.48 361.72 C 810.82 367.77 811.5 373.92 811.5 380.14 z M 809.57 408.16 C 809.55 408.16 809.52 408.16 809.5 408.16 C 804.76 408.13 800.7 404.78 799.77 400.13 L 799.7 399.8 C 793.36 371.03 770.18 343.41 732.66 319.92 C 728.98 317.61 727.2 313.19 728.27 308.98 C 729.34 304.77 733.01 301.73 737.34 301.46 L 779 298.87 C 781.96 298.69 784.85 299.83 786.89 301.99 C 803.92 320.04 814.8 339.41 819.23 359.57 C 820.72 366.31 821.48 373.24 821.48 380.14 C 821.48 380.9 821.47 381.67 821.45 382.44 C 821.45 382.62 821.44 382.79 821.44 382.97 C 821.43 383.62 821.4 384.27 821.37 384.91 C 821.37 385 821.36 385.09 821.35 385.18 C 821.35 385.23 821.35 385.27 821.34 385.32 C 821.3 386.02 821.25 386.7 821.2 387.38 C 821.13 388.41 821.02 389.54 820.9 390.65 C 820.82 391.37 820.73 392.11 820.62 392.85 C 820.52 393.62 820.39 394.47 820.26 395.3 C 820.16 395.97 820.02 396.69 819.89 397.43 L 819.89 397.44 C 819.85 397.69 819.81 397.9 819.77 398.08 C 819.63 398.82 819.48 399.55 819.32 400.29 C 818.35 404.88 814.27 408.16 809.57 408.16 z M 821.35 385.41 C 821.31 385.82 821.25 386.25 821.17 386.64 C 821.26 386.18 821.32 385.77 821.35 385.41 z M 821.38 384.69 C 821.38 384.69 821.38 384.69 821.38 384.69 C 821.38 384.69 821.38 384.69 821.38 384.69 z M 766.91 319.67 C 776.94 327.71 785.67 336.13 793.02 344.87 C 788.75 336.11 782.89 327.51 775.48 319.14 L 766.91 319.67 z M 464.8 560.14 C 371.58 560.14 283.55 542.38 216.92 510.14 C 215.42 509.41 213.92 508.67 212.43 507.93 C 211.39 507.41 210.37 506.88 209.34 506.35 C 205.62 504.45 201.87 502.44 198.25 500.39 L 196.36 499.32 C 195.56 498.86 194.75 498.39 193.94 497.92 C 193.19 497.49 192.46 497.05 191.73 496.62 C 190.09 495.64 188.44 494.63 186.79 493.61 C 186.05 493.16 185.31 492.69 184.59 492.22 C 182.99 491.2 181.41 490.18 179.85 489.14 C 179.08 488.63 178.32 488.12 177.56 487.6 C 175.57 486.24 173.75 484.97 172.05 483.74 C 171.21 483.15 170.38 482.54 169.56 481.93 C 168.29 480.99 166.98 480 165.7 479 C 164.76 478.29 163.84 477.56 162.92 476.83 L 162.89 476.81 C 162.74 476.7 162.6 476.58 162.46 476.46 C 161.52 475.71 160.59 474.95 159.67 474.19 C 158.65 473.35 157.63 472.49 156.64 471.62 C 155.73 470.84 154.84 470.06 153.96 469.27 C 149.93 465.67 146.11 461.95 142.58 458.21 C 142.14 457.75 141.65 457.22 141.15 456.68 C 139.42 454.8 137.8 452.95 136.26 451.11 C 135.75 450.5 135.24 449.88 134.75 449.27 L 134.45 448.9 C 134.06 448.42 133.68 447.95 133.31 447.47 C 132.83 446.86 132.35 446.24 131.89 445.63 C 131.52 445.15 131.1 444.59 130.69 444.04 C 130.64 443.97 130.58 443.89 130.53 443.82 C 130.5 443.77 130.49 443.76 130.45 443.71 C 129.67 442.64 128.92 441.59 128.17 440.51 L 128.04 440.33 C 127.94 440.19 127.84 440.04 127.74 439.9 C 127.37 439.37 127.01 438.83 126.66 438.28 C 126.28 437.71 125.93 437.16 125.57 436.61 L 125.4 436.35 C 125.38 436.33 125.37 436.3 125.35 436.28 C 125.32 436.23 125.28 436.18 125.25 436.12 L 124.24 434.5 C 124.22 434.46 124.19 434.42 124.17 434.39 C 123.49 433.29 122.7 431.97 121.92 430.56 C 121.62 430.04 121.34 429.52 121.05 428.99 L 120.87 428.67 C 120.5 427.99 120.17 427.35 119.84 426.71 C 119.58 426.22 119.31 425.69 119.05 425.16 C 118.88 424.85 118.73 424.53 118.58 424.22 C 118.34 423.73 118.12 423.26 117.89 422.77 C 117.54 422.04 117.2 421.3 116.88 420.56 C 116.62 419.97 116.35 419.36 116.1 418.76 C 115.85 418.19 115.62 417.62 115.39 417.04 C 115.28 416.8 115.19 416.56 115.1 416.32 L 114.93 415.88 C 114.77 415.48 114.62 415.08 114.47 414.68 C 114.24 414.06 114.01 413.45 113.8 412.84 C 113.53 412.1 113.28 411.37 113.04 410.62 C 112.81 409.94 112.6 409.27 112.39 408.58 C 112.18 407.9 111.99 407.23 111.8 406.57 C 111.59 405.86 111.4 405.13 111.21 404.42 C 111.02 403.7 110.83 402.95 110.66 402.18 C 110.53 401.62 110.4 401.05 110.28 400.49 L 110.24 400.33 L 129.77 396 L 129.81 396.16 C 129.92 396.65 130.03 397.14 130.14 397.63 C 130.15 397.67 130.16 397.71 130.17 397.74 C 130.3 398.3 130.44 398.84 130.58 399.38 C 130.72 399.93 130.87 400.47 131.02 400.99 C 131.19 401.56 131.35 402.14 131.53 402.71 C 131.69 403.23 131.85 403.75 132.03 404.28 C 132.05 404.34 132.07 404.4 132.09 404.46 C 132.25 404.97 132.42 405.48 132.61 405.99 C 132.63 406.04 132.65 406.1 132.67 406.15 C 132.84 406.64 133.02 407.13 133.21 407.63 C 133.23 407.67 133.24 407.72 133.26 407.77 C 133.36 408.05 133.47 408.32 133.58 408.6 L 133.81 409.19 C 133.87 409.32 133.93 409.47 133.98 409.6 C 134.14 410.02 134.31 410.44 134.49 410.85 C 134.51 410.89 134.52 410.93 134.54 410.97 C 134.75 411.47 134.97 411.97 135.19 412.47 C 135.21 412.51 135.22 412.54 135.24 412.58 C 135.46 413.09 135.69 413.6 135.94 414.11 C 135.96 414.15 135.98 414.19 136 414.24 C 136.21 414.68 136.41 415.11 136.63 415.55 C 136.67 415.62 136.7 415.7 136.74 415.77 C 136.81 415.9 136.89 416.06 136.96 416.19 C 137.15 416.58 137.35 416.99 137.56 417.38 C 137.58 417.41 137.59 417.44 137.61 417.48 C 137.91 418.06 138.18 418.58 138.46 419.09 L 138.62 419.39 C 138.85 419.81 139.08 420.23 139.32 420.64 C 139.35 420.69 139.38 420.75 139.41 420.8 C 140.02 421.9 140.68 423 141.26 423.94 L 142.17 425.4 C 142.21 425.47 142.26 425.54 142.3 425.61 L 142.43 425.81 C 142.71 426.25 142.99 426.69 143.29 427.13 C 143.3 427.15 143.37 427.25 143.39 427.27 C 143.68 427.71 143.97 428.15 144.27 428.58 C 144.31 428.63 144.34 428.69 144.38 428.74 L 144.68 429.17 C 145.29 430.06 145.94 430.96 146.61 431.88 C 146.68 431.97 146.74 432.06 146.8 432.15 C 147.14 432.61 147.48 433.06 147.83 433.52 C 148.27 434.1 148.66 434.61 149.07 435.12 C 149.09 435.15 149.12 435.18 149.14 435.21 C 149.43 435.59 149.73 435.95 150.03 436.33 L 150.37 436.75 C 150.79 437.27 151.2 437.77 151.62 438.28 C 152.97 439.89 154.4 441.52 155.86 443.11 C 156.31 443.6 156.71 444.03 157.12 444.46 C 160.31 447.85 163.72 451.17 167.31 454.37 C 168.09 455.06 168.88 455.76 169.69 456.45 C 169.72 456.48 169.76 456.51 169.79 456.53 C 170.66 457.29 171.55 458.04 172.46 458.8 C 173.36 459.54 174.25 460.28 175.16 461 C 175.25 461.07 175.34 461.15 175.43 461.22 C 176.23 461.86 177.04 462.5 177.87 463.13 C 177.91 463.16 177.94 463.19 177.98 463.22 C 179.14 464.13 180.33 465.02 181.53 465.91 C 182.27 466.46 182.96 466.97 183.66 467.46 C 183.7 467.49 183.73 467.51 183.77 467.54 C 185.32 468.67 187 469.84 188.89 471.13 C 189.6 471.62 190.27 472.07 190.95 472.52 C 192.41 473.49 193.89 474.45 195.39 475.4 C 195.43 475.43 195.48 475.46 195.52 475.48 C 196.1 475.86 196.68 476.23 197.27 476.59 C 197.3 476.61 197.33 476.63 197.37 476.65 C 198.91 477.61 200.47 478.56 202.05 479.5 C 202.7 479.89 203.33 480.26 203.96 480.63 C 204 480.65 204.04 480.68 204.08 480.7 C 204.82 481.13 205.56 481.57 206.31 481.99 L 208.17 483.05 C 211.49 484.92 214.99 486.8 218.5 488.59 C 219.49 489.1 220.44 489.59 221.4 490.07 C 222.8 490.77 224.22 491.47 225.65 492.16 C 289.62 523.12 374.55 540.17 464.82 540.17 C 555.09 540.17 640.02 523.12 703.98 492.17 C 705.42 491.48 706.84 490.78 708.24 490.08 C 708.95 489.73 709.65 489.37 710.35 489.01 C 710.43 488.97 710.52 488.93 710.6 488.88 C 710.81 488.78 711.02 488.67 711.24 488.55 C 711.32 488.51 711.39 488.47 711.47 488.43 L 711.64 488.35 C 712.01 488.16 712.37 487.98 712.74 487.78 C 715.74 486.21 718.68 484.62 721.55 483.01 L 723.31 482.01 C 724.08 481.57 724.83 481.13 725.57 480.7 C 726.29 480.28 726.95 479.89 727.61 479.5 L 728.09 479.22 C 728.77 478.81 729.45 478.39 730.12 477.99 C 730.84 477.56 731.51 477.15 732.17 476.72 C 732.2 476.7 732.23 476.68 732.26 476.67 C 732.98 476.22 733.7 475.77 734.42 475.3 C 735.15 474.84 735.84 474.4 736.53 473.95 C 737.98 473 739.38 472.07 740.76 471.13 C 742.92 469.66 745.15 468.08 747.36 466.46 C 748.2 465.85 748.99 465.26 749.77 464.66 C 750.43 464.16 751.03 463.71 751.63 463.24 C 751.67 463.21 751.71 463.17 751.76 463.14 C 752.59 462.51 753.4 461.87 754.2 461.22 C 754.27 461.16 754.34 461.11 754.41 461.06 C 754.57 460.92 754.69 460.82 754.86 460.69 C 755.47 460.21 756.08 459.72 756.67 459.22 C 756.72 459.18 756.77 459.13 756.83 459.09 C 757.18 458.81 757.53 458.51 757.87 458.22 C 757.92 458.18 757.96 458.14 758.01 458.1 C 758.43 457.76 758.84 457.4 759.25 457.05 L 759.72 456.65 C 760.39 456.08 761.03 455.51 761.68 454.94 C 761.7 454.92 761.78 454.85 761.81 454.83 C 762.22 454.47 762.63 454.11 763.04 453.73 C 763.09 453.68 763.14 453.64 763.19 453.59 C 763.71 453.13 764.22 452.66 764.72 452.19 C 765.8 451.18 766.86 450.18 767.91 449.15 C 768.44 448.63 768.97 448.11 769.49 447.59 C 769.83 447.25 770.16 446.91 770.49 446.57 L 771.03 446.02 C 771.44 445.59 771.85 445.16 772.25 444.73 L 786.86 458.39 C 786.39 458.89 785.91 459.39 785.44 459.89 C 785.41 459.92 785.38 459.95 785.35 459.98 L 784.81 460.53 C 784.42 460.93 784.04 461.32 783.64 461.72 C 783.08 462.28 782.5 462.85 781.93 463.41 C 780.86 464.46 779.69 465.58 778.35 466.82 C 777.75 467.38 777.12 467.96 776.49 468.52 C 775.99 468.98 775.48 469.43 774.97 469.87 C 774.21 470.54 773.46 471.21 772.7 471.86 L 772.28 472.22 C 771.79 472.64 771.3 473.05 770.81 473.46 C 770.38 473.83 769.94 474.19 769.5 474.55 C 768.79 475.14 768.08 475.73 767.35 476.3 C 767.13 476.49 766.9 476.67 766.68 476.84 C 765.77 477.57 764.85 478.3 763.91 479.01 C 763.23 479.54 762.55 480.06 761.87 480.57 C 761.02 481.22 760.09 481.91 759.15 482.6 C 756.79 484.33 754.38 486.04 752.01 487.65 C 750.52 488.66 749.02 489.66 747.5 490.66 C 746.75 491.15 745.97 491.65 745.18 492.15 C 744.45 492.62 743.69 493.1 742.92 493.57 C 742.1 494.1 741.26 494.61 740.42 495.12 L 738.44 496.33 C 738.4 496.35 738.37 496.37 738.33 496.39 L 737.78 496.71 C 737.11 497.11 736.39 497.53 735.67 497.95 C 734.9 498.4 734.07 498.89 733.24 499.36 L 731.44 500.38 C 731.41 500.4 731.38 500.41 731.35 500.43 C 728.3 502.14 725.17 503.84 722.06 505.46 C 721.67 505.67 721.21 505.91 720.74 506.14 L 720.68 506.17 C 720.28 506.39 719.88 506.59 719.47 506.79 C 718.71 507.18 717.95 507.57 717.18 507.95 C 715.7 508.69 714.2 509.43 712.69 510.16 C 646.05 542.38 558.02 560.14 464.8 560.14 z M 176.12 461.84 C 176.12 461.84 176.13 461.85 176.13 461.85 C 176.12 461.85 176.12 461.85 176.12 461.84 z M 125.66 436.68 C 125.66 436.68 125.67 436.69 125.67 436.69 C 125.67 436.69 125.66 436.69 125.66 436.68 z M 808.9 428.27 L 791.54 418.34 L 791.52 418.37 L 791.74 417.95 C 792.15 417.18 792.55 416.39 792.93 415.6 C 793.19 415.08 793.39 414.64 793.6 414.2 C 793.62 414.17 793.63 414.13 793.65 414.1 C 793.9 413.59 794.13 413.08 794.35 412.56 C 794.39 412.48 794.42 412.4 794.46 412.32 C 794.67 411.87 794.86 411.41 795.05 410.96 C 795.07 410.92 795.08 410.88 795.1 410.84 C 795.28 410.43 795.45 410.01 795.61 409.59 C 795.66 409.46 795.72 409.33 795.77 409.19 L 795.81 409.11 C 795.83 409.07 795.84 409.03 795.86 408.99 C 796.03 408.57 796.19 408.15 796.34 407.74 C 796.35 407.7 796.37 407.67 796.38 407.63 C 796.57 407.13 796.75 406.62 796.93 406.13 C 796.95 406.09 796.96 406.04 796.98 406 C 797.17 405.49 797.34 404.98 797.51 404.46 C 797.53 404.4 797.55 404.34 797.57 404.28 C 797.75 403.75 797.91 403.23 798.07 402.7 L 798.1 402.61 C 798.25 402.12 798.4 401.63 798.54 401.14 C 798.55 401.09 798.57 401.05 798.58 401 C 798.73 400.47 798.88 399.94 799.01 399.41 C 799.16 398.84 799.3 398.3 799.43 397.74 C 799.44 397.7 799.45 397.66 799.46 397.63 C 799.59 397.09 799.71 396.55 799.83 396.01 L 819.36 400.31 C 819.22 400.93 819.08 401.56 818.94 402.18 C 818.77 402.94 818.57 403.7 818.38 404.44 C 818.21 405.11 818.02 405.81 817.82 406.5 C 817.64 407.15 817.44 407.81 817.24 408.46 L 817.21 408.57 C 817 409.26 816.79 409.94 816.56 410.62 C 816.32 411.37 816.07 412.11 815.8 412.85 C 815.59 413.45 815.36 414.07 815.13 414.69 C 814.92 415.27 814.7 415.84 814.47 416.41 C 814.39 416.62 814.3 416.84 814.21 417.05 C 813.98 417.63 813.75 418.2 813.5 418.77 C 813.24 419.39 812.97 420.01 812.69 420.62 C 812.38 421.34 812.05 422.06 811.7 422.78 C 811.45 423.3 811.21 423.81 810.95 424.33 C 810.49 425.29 809.96 426.34 809.42 427.36 C 809.4 427.39 809.39 427.42 809.37 427.46 L 809.3 427.6 C 809.15 427.82 809.03 428.04 808.9 428.27 z M 815 427 C 816 429 812 426 807 427 L 803 426 C 802 423 793.08 431.02 794 425 C 789.89 425.28 789.81 421.8 791.27 418.86 C 791.37 418.65 791.48 418.45 791.59 418.24 L 791.65 418.14 C 791.69 418.07 791.71 418.02 791.75 417.95 C 792.16 417.18 792.56 416.4 792.93 415.61 C 792.96 415.55 792.98 415.5 793.01 415.44 C 793.19 415.08 793.37 414.72 793.53 414.35 C 793.57 414.27 793.61 414.18 793.65 414.1 C 793.9 413.59 794.12 413.09 794.35 412.57 C 794.39 412.49 794.42 412.4 794.46 412.32 C 794.67 411.87 794.86 411.41 795.05 410.95 C 795.06 410.92 795.08 410.89 795.09 410.85 C 795.27 410.44 795.44 410.02 795.6 409.59 C 795.65 409.46 795.71 409.33 795.76 409.19 L 795.79 409.12 C 795.81 409.08 795.83 409.03 795.84 408.99 C 796.01 408.57 796.17 408.15 796.32 407.74 C 796.34 407.69 796.36 407.64 796.38 407.59 C 796.56 407.13 796.73 406.66 796.89 406.19 C 796.91 406.12 796.94 406.05 796.96 405.98 C 797.15 405.48 797.32 404.97 797.48 404.46 C 797.5 404.39 797.53 404.31 797.55 404.24 C 797.72 403.75 797.87 403.26 798.02 402.76 C 798.2 402.18 798.36 401.66 798.5 401.14 C 798.51 401.09 798.53 401.04 798.54 400.99 C 798.69 400.49 798.83 399.98 798.96 399.47 C 799.12 398.85 799.26 398.31 799.39 397.76 C 799.4 397.71 799.41 397.67 799.42 397.62 C 799.54 397.14 799.65 396.66 799.75 396.17 C 799.76 396.12 799.77 396.07 799.78 396.02 C 799.91 395.44 800.03 394.85 800.14 394.26 C 800.14 394.25 800.14 394.23 800.15 394.22 C 800.17 394.1 800.19 393.99 800.21 393.87 C 800.32 393.31 800.42 392.74 800.5 392.17 C 800.61 391.46 800.71 390.81 800.8 390.15 C 800.89 389.54 800.95 389 801.01 388.46 C 801.11 387.59 801.18 386.75 801.25 385.89 C 801.3 385.3 801.33 384.78 801.36 384.25 C 801.36 384.11 801.37 383.96 801.38 383.82 C 801.4 383.35 801.42 382.9 801.43 382.45 C 801.43 382.34 801.43 382.24 801.44 382.13 C 801.44 382.08 801.44 382.02 801.44 381.98 C 801.46 381.37 801.47 380.75 801.47 380.14 C 801.47 374.62 805.95 370.14 811.47 370.14 C 816.99 370.14 821.47 374.62 821.47 380.14 L 821.47 424.41 C 821.47 427.23 820.28 429.92 817 427 C 815 427 817 427 818 430 z M 800.1 394.73 C 800.1 394.73 800.1 394.74 800.1 394.74 C 800.1 394.73 800.1 394.73 800.1 394.73 z M 800.22 393.97 C 800.22 393.98 800.22 393.98 800.22 393.97 C 800.22 393.98 800.22 393.98 800.22 393.97 z M 801.5 381.74 C 801.5 381.74 801.5 381.75 801.5 381.74 C 801.5 381.75 801.5 381.74 801.5 381.74 z M 801.5 381.73 C 801.5 381.73 801.5 381.74 801.5 381.73 C 801.5 381.74 801.5 381.73 801.5 381.73 z M 801.5 381.72 C 801.5 381.72 801.5 381.73 801.5 381.73 C 801.5 381.72 801.5 381.72 801.5 381.72 z M 779.53 451.54 L 811.5 455.69 L 811.5 465.64 C 811.5 471.07 810.85 476.42 809.57 481.7 C 800.95 517.47 763.83 549.54 708.32 573.47 C 645.71 600.47 559.71 617.14 464.8 617.14 C 369.89 617.14 283.89 600.47 221.28 573.47 C 165.76 549.54 128.64 517.47 120.02 481.7 C 118.74 476.42 118.09 471.07 118.09 465.64 L 118.09 380.14 C 118.09 380.85 118.1 381.56 118.12 382.27 C 118.12 382.38 118.12 382.49 118.13 382.6 C 118.14 383.24 118.17 383.89 118.2 384.53 C 118.21 384.58 118.21 384.64 118.21 384.69 C 118.25 385.33 118.29 385.96 118.34 386.59 C 118.35 386.77 118.36 386.95 118.38 387.12 C 118.5 388.57 118.65 390.02 118.85 391.46 C 118.95 392.21 119.06 392.95 119.18 393.7 C 119.29 394.41 119.41 395.12 119.55 395.82 C 119.56 395.91 119.58 396.01 119.6 396.1 C 119.73 396.79 119.87 397.48 120.02 398.16 C 120.14 398.75 120.28 399.34 120.42 399.93 C 120.57 400.6 120.74 401.26 120.91 401.91 C 121.07 402.54 121.24 403.16 121.42 403.78 C 121.59 404.4 121.78 405.02 121.97 405.64 C 122.16 406.26 122.35 406.88 122.56 407.49 C 122.77 408.15 122.99 408.8 123.23 409.45 C 123.43 410.03 123.64 410.61 123.86 411.18 C 124.05 411.7 124.25 412.22 124.46 412.74 C 124.52 412.9 124.59 413.06 124.66 413.22 C 124.87 413.76 125.09 414.3 125.32 414.83 C 125.56 415.4 125.8 415.97 126.06 416.53 C 126.34 417.18 126.63 417.82 126.94 418.46 C 127.16 418.95 127.4 419.44 127.64 419.92 C 127.74 420.14 127.85 420.36 127.97 420.58 C 128.21 421.08 128.46 421.57 128.72 422.06 C 129.02 422.66 129.34 423.25 129.66 423.85 C 129.93 424.35 130.21 424.86 130.49 425.36 C 130.54 425.45 130.59 425.54 130.65 425.63 C 131.31 426.82 132.01 427.99 132.73 429.17 C 133.06 429.71 133.4 430.25 133.74 430.79 C 133.77 430.83 133.8 430.88 133.83 430.93 C 134.2 431.51 134.58 432.1 134.97 432.68 C 135.32 433.21 135.67 433.73 136.03 434.26 C 136.15 434.44 136.28 434.62 136.41 434.81 C 137.1 435.81 137.82 436.81 138.55 437.81 C 138.61 437.89 138.66 437.96 138.71 438.03 C 139.1 438.55 139.49 439.07 139.89 439.59 C 140.32 440.16 140.76 440.73 141.21 441.3 C 141.65 441.87 142.11 442.43 142.57 443 C 143.02 443.56 143.48 444.12 143.95 444.68 C 145.4 446.41 146.91 448.13 148.48 449.84 C 148.94 450.35 149.41 450.85 149.89 451.35 C 153.23 454.9 156.82 458.39 160.64 461.8 C 161.48 462.55 162.33 463.3 163.2 464.04 C 164.14 464.86 165.1 465.67 166.08 466.48 C 167.02 467.26 167.97 468.04 168.94 468.81 C 168.97 468.84 168.99 468.86 169.02 468.88 C 169.94 469.61 170.87 470.35 171.82 471.07 C 173.05 472.03 174.31 472.98 175.58 473.92 C 176.34 474.49 177.11 475.05 177.89 475.6 C 179.64 476.87 181.43 478.12 183.25 479.36 C 183.96 479.85 184.67 480.33 185.4 480.81 C 186.92 481.82 188.46 482.82 190.02 483.81 C 190.7 484.25 191.38 484.68 192.06 485.1 C 193.66 486.1 195.27 487.08 196.91 488.06 C 197.59 488.47 198.28 488.88 198.98 489.28 C 199.76 489.74 200.55 490.2 201.34 490.65 C 201.94 491 202.55 491.34 203.17 491.69 C 206.66 493.66 210.25 495.59 213.93 497.47 C 214.92 497.98 215.91 498.49 216.91 498.99 C 218.35 499.71 219.81 500.43 221.28 501.14 C 283.89 531.44 369.89 550.14 464.8 550.14 C 559.71 550.14 645.71 531.44 708.32 501.14 C 709.79 500.43 711.25 499.71 712.69 498.99 C 713.45 498.61 714.2 498.23 714.95 497.84 C 715.3 497.67 715.65 497.49 716 497.3 C 716.47 497.07 716.94 496.82 717.41 496.57 C 720.48 494.97 723.49 493.34 726.43 491.69 C 727.05 491.34 727.66 491 728.26 490.65 C 729.05 490.2 729.84 489.74 730.62 489.28 C 731.32 488.88 732.01 488.47 732.69 488.06 C 732.86 487.96 733.03 487.86 733.2 487.76 C 733.89 487.35 734.58 486.93 735.26 486.51 C 736.03 486.05 736.79 485.58 737.54 485.1 C 738.3 484.64 739.05 484.16 739.79 483.68 C 740.53 483.21 741.27 482.74 742 482.26 C 743.47 481.3 744.92 480.34 746.35 479.36 C 748.7 477.76 751 476.13 753.25 474.48 C 754.12 473.85 754.98 473.21 755.83 472.56 C 756.48 472.07 757.13 471.58 757.78 471.07 C 758.69 470.38 759.58 469.68 760.46 468.97 C 760.63 468.84 760.8 468.7 760.97 468.55 C 761.69 467.99 762.4 467.41 763.1 466.82 C 763.51 466.48 763.93 466.14 764.35 465.78 C 764.97 465.27 765.58 464.75 766.19 464.22 C 766.92 463.6 767.64 462.96 768.36 462.32 C 768.84 461.91 769.31 461.49 769.77 461.06 C 770.36 460.54 770.94 460.01 771.51 459.47 C 772.65 458.41 773.78 457.34 774.89 456.25 C 775.44 455.72 775.99 455.18 776.53 454.63 C 777.09 454.07 777.63 453.51 778.18 452.95 C 778.63 452.49 779.08 452.02 779.53 451.54 z M 464.8 627.14 C 371.74 627.14 283.85 611.34 217.32 582.65 C 188.29 570.14 164.42 555.61 146.39 539.47 C 127.16 522.26 115.01 503.6 110.3 484.04 C 108.84 478 108.09 471.8 108.09 465.64 L 108.09 380.14 C 108.09 374.62 112.57 370.14 118.09 370.14 C 123.61 370.14 128.09 374.62 128.09 380.14 C 128.09 380.76 128.1 381.38 128.12 381.99 C 128.12 382.04 128.12 382.09 128.12 382.13 C 128.12 382.23 128.13 382.33 128.13 382.42 C 128.14 382.88 128.16 383.35 128.18 383.81 C 128.19 383.98 128.2 384.13 128.21 384.26 C 128.24 384.78 128.28 385.29 128.32 385.8 C 128.32 385.86 128.33 385.93 128.33 385.99 L 128.34 386.11 C 128.35 386.17 128.35 386.23 128.36 386.29 C 128.48 387.69 128.61 388.93 128.77 390.08 C 128.87 390.81 128.97 391.46 129.07 392.13 C 129.16 392.73 129.26 393.3 129.37 393.86 C 129.39 393.96 129.41 394.07 129.43 394.17 C 129.43 394.19 129.44 394.22 129.44 394.24 C 129.55 394.83 129.67 395.41 129.8 395.99 C 129.81 396.04 129.82 396.1 129.84 396.16 C 129.94 396.65 130.06 397.13 130.17 397.62 C 130.18 397.66 130.19 397.7 130.2 397.73 C 130.33 398.28 130.47 398.83 130.61 399.37 C 130.76 399.96 130.9 400.47 131.05 400.99 C 131.06 401.04 131.08 401.08 131.09 401.13 C 131.23 401.63 131.38 402.13 131.53 402.63 C 131.71 403.21 131.86 403.73 132.04 404.23 C 132.07 404.3 132.09 404.38 132.11 404.45 C 132.27 404.96 132.44 405.47 132.63 405.97 C 132.66 406.04 132.68 406.12 132.71 406.19 C 132.87 406.65 133.04 407.12 133.21 407.57 C 133.23 407.63 133.25 407.68 133.27 407.74 C 133.42 408.15 133.58 408.57 133.75 408.98 C 133.77 409.02 133.79 409.07 133.8 409.11 L 133.83 409.19 C 133.89 409.32 133.94 409.45 133.99 409.59 C 134.15 410.01 134.32 410.42 134.5 410.83 C 134.52 410.87 134.53 410.9 134.55 410.94 C 134.76 411.44 134.94 411.87 135.14 412.3 C 135.18 412.39 135.22 412.48 135.26 412.58 C 135.48 413.09 135.7 413.59 135.95 414.09 C 135.99 414.18 136.04 414.27 136.08 414.37 C 136.24 414.73 136.42 415.09 136.6 415.44 C 136.66 415.56 136.72 415.68 136.77 415.81 C 136.85 415.95 136.93 416.11 137 416.25 C 137.18 416.63 137.37 417.01 137.57 417.38 C 137.61 417.45 137.64 417.51 137.67 417.58 C 137.88 418 138.11 418.42 138.33 418.84 L 138.5 419.15 C 138.71 419.54 138.95 419.97 139.19 420.4 C 139.27 420.53 139.34 420.65 139.41 420.78 C 139.91 421.68 140.47 422.63 141.28 423.96 C 141.56 424.41 141.84 424.87 142.13 425.33 C 142.21 425.45 142.28 425.56 142.34 425.66 C 142.65 426.14 142.96 426.63 143.29 427.11 C 143.66 427.66 143.98 428.15 144.32 428.65 L 144.69 429.19 C 145.29 430.06 145.94 430.97 146.61 431.88 C 146.68 431.97 146.74 432.06 146.8 432.14 C 147.16 432.62 147.49 433.06 147.84 433.51 C 148.28 434.09 148.68 434.61 149.08 435.12 C 149.44 435.59 149.75 435.97 150.07 436.36 L 150.37 436.73 C 150.8 437.26 151.21 437.77 151.64 438.27 C 152.99 439.88 154.41 441.5 155.87 443.09 C 156.32 443.59 156.72 444.01 157.12 444.43 C 157.14 444.46 157.17 444.48 157.19 444.51 C 160.32 447.84 163.73 451.15 167.32 454.35 C 168.1 455.05 168.89 455.74 169.7 456.43 C 169.73 456.46 169.77 456.49 169.8 456.51 C 170.68 457.27 171.57 458.03 172.48 458.78 C 173.38 459.52 174.27 460.26 175.18 460.98 C 175.26 461.04 175.34 461.11 175.41 461.17 C 176.22 461.81 177.04 462.46 177.88 463.1 C 177.92 463.13 177.96 463.16 178 463.19 C 179.16 464.1 180.35 464.99 181.55 465.88 C 182.28 466.43 182.97 466.93 183.67 467.42 C 183.71 467.45 183.75 467.47 183.78 467.5 C 185.35 468.64 187.03 469.81 188.9 471.09 C 189.6 471.57 190.25 472.01 190.91 472.45 C 192.41 473.45 193.89 474.41 195.39 475.36 C 196.08 475.81 196.7 476.2 197.32 476.58 C 198.91 477.58 200.47 478.52 202.05 479.47 C 202.7 479.86 203.32 480.23 203.95 480.59 C 203.99 480.61 204.03 480.64 204.07 480.66 C 204.81 481.09 205.55 481.53 206.3 481.95 C 206.84 482.26 207.3 482.53 207.78 482.79 L 208.09 482.97 C 211.49 484.89 214.99 486.77 218.49 488.56 C 219.47 489.07 220.43 489.56 221.39 490.04 C 222.79 490.74 224.21 491.44 225.64 492.13 C 289.61 523.09 374.55 540.13 464.81 540.13 C 555.07 540.13 640.01 523.08 703.97 492.13 C 705.41 491.44 706.83 490.74 708.23 490.04 C 708.94 489.68 709.65 489.33 710.35 488.96 C 710.42 488.92 710.5 488.89 710.57 488.85 C 710.8 488.74 711.02 488.62 711.25 488.5 C 711.37 488.44 711.49 488.37 711.61 488.31 C 711.98 488.13 712.36 487.93 712.73 487.73 C 715.74 486.16 718.68 484.57 721.55 482.96 L 721.88 482.78 C 722.34 482.52 722.79 482.27 723.24 482.01 C 724.07 481.53 724.82 481.1 725.56 480.66 C 725.6 480.64 725.64 480.62 725.67 480.59 C 726.3 480.23 726.93 479.86 727.54 479.49 L 728.15 479.13 C 728.74 478.78 729.38 478.39 730.01 478 C 730.05 477.97 730.1 477.95 730.14 477.92 C 730.82 477.51 731.5 477.1 732.16 476.67 C 732.23 476.63 732.3 476.58 732.37 476.54 C 733.04 476.13 733.71 475.71 734.36 475.28 L 734.55 475.15 C 735.21 474.73 735.86 474.32 736.51 473.89 C 737.94 472.95 739.33 472.04 740.7 471.1 C 742.89 469.61 745.11 468.04 747.34 466.4 C 748.19 465.79 748.98 465.2 749.76 464.6 C 750.41 464.11 751.01 463.65 751.61 463.18 C 751.65 463.15 751.69 463.11 751.74 463.08 C 752.57 462.45 753.38 461.81 754.18 461.16 C 754.25 461.1 754.32 461.05 754.39 461 C 754.54 460.87 754.68 460.75 754.83 460.63 C 755.45 460.15 756.06 459.65 756.66 459.14 L 757.13 458.75 C 757.37 458.55 757.61 458.36 757.85 458.15 C 757.9 458.11 757.95 458.07 758 458.03 C 758.55 457.57 759.1 457.11 759.64 456.64 C 760.39 456.01 761.05 455.42 761.71 454.83 C 761.76 454.79 761.81 454.74 761.86 454.7 C 762.23 454.39 762.59 454.06 762.94 453.73 C 763.01 453.67 763.08 453.6 763.15 453.54 C 763.65 453.1 764.14 452.65 764.62 452.19 C 765.77 451.12 766.83 450.12 767.87 449.09 C 767.89 449.07 767.92 449.04 767.94 449.02 C 768.42 448.56 768.9 448.08 769.37 447.6 C 769.8 447.17 770.14 446.82 770.49 446.46 L 771.02 445.92 C 771.41 445.52 771.81 445.1 772.21 444.67 C 774 447 774 448 782 448 L 812 452 C 815 453 821.47 450.63 821.47 455.66 L 821.47 465.61 C 821.47 471.78 820.73 477.97 819.26 484.03 C 814.55 503.58 802.4 522.24 783.17 539.45 C 765.14 555.58 741.28 570.11 712.25 582.63 C 645.75 611.34 557.87 627.14 464.8 627.14 z M 128.09 440.36 L 128.09 465.64 C 128.09 470.22 128.64 474.83 129.74 479.34 C 137.33 510.85 171.25 541.01 225.24 564.28 C 289.32 591.91 374.4 607.13 464.8 607.13 C 555.2 607.13 640.28 591.91 704.36 564.28 C 758.35 541.01 792.26 510.84 799.85 479.35 C 800.95 474.83 801.5 470.22 801.5 465.63 L 801.5 464.47 L 783.21 462.09 C 782.79 462.52 782.33 462.97 781.87 463.41 C 780.81 464.45 779.69 465.52 778.33 466.79 C 777.78 467.32 777.15 467.89 776.5 468.46 C 775.99 468.93 775.47 469.39 774.95 469.85 C 774.19 470.52 773.44 471.19 772.68 471.84 C 772.1 472.34 771.45 472.9 770.79 473.44 C 770.48 473.71 770.16 473.97 769.85 474.22 L 769.5 474.51 C 768.82 475.09 768.08 475.69 767.33 476.28 C 767.11 476.47 766.89 476.65 766.66 476.82 C 765.75 477.55 764.83 478.27 763.89 478.99 C 763.21 479.52 762.53 480.03 761.85 480.55 C 760.98 481.21 760.06 481.9 759.11 482.59 C 756.74 484.32 754.33 486.03 751.97 487.64 C 750.5 488.64 748.99 489.64 747.46 490.65 C 746.75 491.11 746.01 491.59 745.27 492.06 L 745.15 492.14 C 744.43 492.61 743.63 493.12 742.82 493.61 C 742.04 494.11 741.25 494.6 740.45 495.08 C 739.74 495.52 739.03 495.95 738.31 496.38 L 737.79 496.69 C 737.13 497.09 736.39 497.52 735.65 497.95 C 734.85 498.42 734.03 498.9 733.22 499.36 C 732.77 499.62 732.23 499.93 731.68 500.24 L 731.35 500.43 C 728.28 502.15 725.15 503.85 722.04 505.47 C 721.6 505.7 721.1 505.97 720.6 506.22 C 720.22 506.42 719.85 506.61 719.47 506.8 C 718.71 507.2 717.94 507.58 717.17 507.97 C 715.69 508.71 714.19 509.45 712.68 510.18 C 646.06 542.42 558.03 560.18 464.81 560.18 C 371.59 560.18 283.56 542.42 216.93 510.18 C 215.43 509.45 213.93 508.71 212.45 507.97 C 211.41 507.45 210.39 506.92 209.36 506.4 C 205.64 504.5 201.9 502.49 198.26 500.44 L 197.96 500.27 C 197.4 499.96 196.86 499.65 196.31 499.33 C 195.57 498.91 194.76 498.44 193.96 497.96 C 193.21 497.53 192.47 497.09 191.75 496.66 C 190.09 495.67 188.42 494.65 186.77 493.62 C 186.08 493.19 185.34 492.73 184.6 492.25 C 183.05 491.27 181.45 490.23 179.87 489.18 C 179.12 488.68 178.34 488.16 177.57 487.63 C 175.61 486.29 173.79 485.02 172.08 483.78 C 171.24 483.19 170.4 482.58 169.58 481.96 C 168.31 481.02 167 480.04 165.72 479.04 C 164.78 478.33 163.86 477.59 162.94 476.87 L 162.93 476.86 C 162.78 476.74 162.63 476.63 162.49 476.5 C 161.54 475.75 160.62 474.98 159.7 474.22 C 158.68 473.38 157.67 472.53 156.68 471.66 C 155.76 470.88 154.87 470.09 153.98 469.3 C 149.98 465.73 146.16 462.02 142.65 458.28 C 142.11 457.72 141.58 457.15 141.06 456.58 C 139.45 454.83 137.83 452.98 136.29 451.15 C 135.77 450.53 135.27 449.92 134.78 449.31 L 134.52 448.99 C 134.11 448.48 133.7 447.98 133.31 447.47 C 132.87 446.92 132.39 446.29 131.92 445.67 C 131.56 445.2 131.16 444.66 130.75 444.12 C 130.7 444.05 130.61 443.94 130.56 443.86 C 130.53 443.81 130.52 443.8 130.48 443.75 C 129.7 442.68 128.93 441.61 128.19 440.54 L 128.09 440.36 z M 176.12 461.84 C 176.12 461.84 176.13 461.85 176.13 461.85 C 176.12 461.85 176.12 461.85 176.12 461.84 z M 174.47 460.5 C 174.48 460.5 174.48 460.5 174.47 460.5 C 174.48 460.5 174.48 460.5 174.47 460.5 z M 174.44 460.47 C 174.45 460.47 174.45 460.48 174.46 460.48 C 174.46 460.48 174.45 460.48 174.44 460.47 z M 139.21 420.46 C 139.21 420.46 139.21 420.47 139.21 420.46 C 139.21 420.47 139.21 420.46 139.21 420.46 z M 139.02 420.15 C 139.02 420.15 139.02 420.16 139.03 420.16 C 139.02 420.16 139.02 420.16 139.02 420.15 z M 138.94 420.04 C 138.96 420.08 138.99 420.11 139.01 420.15 C 138.99 420.11 138.97 420.08 138.94 420.04 z M 129.48 394.62 C 129.48 394.62 129.48 394.63 129.48 394.63 C 129.48 394.63 129.48 394.62 129.48 394.62 z M 129.35 393.87 C 129.35 393.87 129.35 393.88 129.35 393.88 C 129.35 393.88 129.35 393.88 129.35 393.87 z M 128.1 381.78 C 128.1 381.79 128.1 381.79 128.1 381.8 C 128.1 381.8 128.1 381.79 128.1 381.78 z M 128.09 381.72 C 128.09 381.74 128.09 381.76 128.1 381.79 C 128.09 381.76 128.09 381.74 128.09 381.72 z M 464.8 802.14 C 387.04 802.14 313.25 789.93 251.39 766.82 C 186 742 145.27 711.92 123.26 674.82 C 113.19 657.87 108.09 640.15 108.09 622.14 L 108.09 465.64 C 108.09 460.12 112.57 455.64 118.09 455.64 C 123.61 455.64 128.09 460.12 128.09 465.64 C 128.09 470.22 128.64 474.83 129.74 479.34 C 137.33 510.85 171.25 541.01 225.24 564.28 C 289.32 591.91 374.4 607.13 464.8 607.13 C 555.2 607.13 640.28 591.91 704.36 564.28 C 758.35 541.01 792.26 510.84 799.85 479.35 C 800.95 474.83 801.5 470.22 801.5 465.63 C 801.5 460.11 805.98 455.63 811.5 455.63 C 817.02 455.63 821.5 460.11 821.5 465.63 L 821.5 622.13 C 821.5 640.13 816.4 657.86 806.34 674.81 C 784.33 711.91 740.02 743.72 678.21 766.81 C 616.35 789.93 542.56 802.14 464.8 802.14 z M 128.09 519.96 L 128.09 622.14 C 128.09 636.51 132.25 650.8 140.46 664.61 C 181.51 733.81 314.89 782.14 464.8 782.14 C 614.71 782.14 748.08 733.81 789.14 664.62 C 797.34 650.8 801.5 636.51 801.5 622.14 L 801.5 519.96 C 796.37 526.64 790.26 533.16 783.2 539.48 C 765.17 555.61 741.31 570.14 712.28 582.66 C 645.76 611.35 557.87 627.15 464.8 627.15 C 371.74 627.15 283.85 611.35 217.32 582.66 C 188.29 570.15 164.42 555.62 146.39 539.48 C 139.33 533.15 133.22 526.64 128.09 519.96 z M 189 561 L 192 745 L 183 744 L 178 560 Z M 446 623 L 462 623 L 459 808 L 446 808 Z M 721 573 L 736 573 L 732 753 L 718 753 Z M 779.53 451.54 L 811.5 455.69 L 887.01 465.5 C 887.74 465.59 888.47 465.64 889.18 465.64 C 897.57 465.64 904.82 459.35 905.8 450.8 C 906.86 441.51 900.11 433.16 890.81 432.24 L 811.5 424.41 L 800.23 423.3 L 800.22 423.3 L 391.79 382.99 C 387.78 377.13 379.53 372.55 369.61 371.42 C 354.8 369.73 341.87 376.36 340.74 386.24 C 339.61 396.11 350.71 405.5 365.53 407.19 C 375.44 408.32 384.51 405.72 389.74 400.92 L 779.53 451.54 L 779.53 451.54 z M 889.18 470.64 C 888.29 470.64 887.35 470.58 886.39 470.46 L 778.89 456.5 L 780.18 446.58 L 887.66 460.54 C 888.18 460.6 888.7 460.64 889.19 460.64 C 895.15 460.64 900.16 456.17 900.84 450.23 C 901.2 447.08 900.3 443.99 898.31 441.52 C 896.32 439.05 893.48 437.52 890.33 437.21 L 799.84 428.28 C 799.81 428.28 799.77 428.28 799.74 428.27 L 391.3 387.96 C 389.83 387.82 388.5 387.03 387.66 385.81 C 384.32 380.92 377.18 377.31 369.04 376.38 C 357.19 375.03 346.5 379.8 345.7 386.8 C 345.23 390.93 348.43 394.31 350.37 395.96 C 354.25 399.24 359.98 401.52 366.08 402.22 C 374.22 403.15 381.98 401.24 386.34 397.23 C 387.43 396.23 388.9 395.76 390.36 395.96 L 780.14 446.58 L 778.85 456.5 L 391.22 406.16 C 384.65 411.08 375.02 413.31 364.94 412.16 C 356.8 411.23 349.33 408.19 343.9 403.6 C 337.99 398.6 335.02 392.06 335.75 385.67 C 337.21 372.86 352.32 364.42 370.15 366.45 C 380.25 367.6 389.12 371.94 394.41 378.23 L 800.59 418.32 C 800.62 418.32 800.66 418.32 800.69 418.33 L 891.27 427.27 C 897.11 427.85 902.36 430.68 906.05 435.25 C 909.74 439.82 911.4 445.54 910.73 451.38 C 909.51 462.35 900.23 470.64 889.18 470.64 z M 322.42 351.59 C 306.19 351.59 293.28 342.97 292.35 330.99 C 291.35 318.14 304.58 306.98 322.47 305.58 C 332.63 304.79 342.15 307.37 348.54 312.53 L 845.66 266.19 C 851.51 265.65 857.2 267.43 861.69 271.21 C 866.18 274.99 868.9 280.3 869.35 286.15 C 869.39 286.74 869.42 287.3 869.42 287.84 C 869.42 299.28 860.47 308.81 849.03 309.53 L 350.72 340.53 C 345.21 346.61 336.19 350.63 326.04 351.43 C 324.82 351.55 323.61 351.59 322.42 351.59 z M 326.02 315.45 C 325.1 315.45 324.18 315.49 323.24 315.56 C 311.36 316.49 301.77 323.2 302.32 330.23 C 302.87 337.26 313.36 342.42 325.26 341.49 C 333.44 340.85 340.7 337.49 344.21 332.74 C 345.09 331.55 346.45 330.81 347.92 330.72 L 848.39 299.58 C 854.56 299.19 859.4 294.05 859.4 287.87 C 859.4 287.56 859.38 287.24 859.36 286.91 C 859.12 283.78 857.65 280.92 855.23 278.88 C 852.81 276.84 849.73 275.87 846.58 276.17 L 347.3 322.7 C 345.83 322.84 344.37 322.32 343.32 321.27 C 339.6 317.59 333.14 315.45 326.02 315.45 z M 864.41 287.86 C 864.41 296.62 857.6 304 848.71 304.56 L 779.63 308.86 L 737.97 311.45 L 348.24 335.7 C 344.02 341.42 335.6 345.69 325.65 346.47 C 310.79 347.62 298.11 340.52 297.34 330.61 C 296.57 320.7 308 311.73 322.86 310.57 C 332.81 309.8 341.79 312.72 346.84 317.72 L 687.74 285.94 L 745.79 280.53 L 846.12 271.18 C 855.42 270.31 863.64 277.23 864.36 286.55 C 864.39 286.99 864.41 287.43 864.41 287.86 z M 889.18 470.64 C 888.29 470.64 887.35 470.58 886.39 470.46 L 778.89 456.5 L 780.18 446.58 L 887.66 460.54 C 888.18 460.6 888.7 460.64 889.19 460.64 C 895.15 460.64 900.16 456.17 900.84 450.23 C 901.2 447.08 900.3 443.99 898.31 441.52 C 896.32 439.05 893.48 437.52 890.33 437.21 L 799.84 428.28 C 799 435 801 428 799.74 428.27 L 391.3 387.96 C 389.83 387.82 388.5 387.03 387.66 385.81 C 384.32 380.92 377.18 377.31 369.04 376.38 C 357.19 375.03 346.5 379.8 345.7 386.8 C 345.23 390.93 348.43 394.31 350.37 395.96 C 354.25 399.24 359.98 401.52 366.08 402.22 C 374.22 403.15 381.98 401.24 386.34 397.23 C 387.43 396.23 388.9 395.76 390.36 395.96 L 780.14 446.58 L 778.85 456.5 L 391.22 406.16 C 384.65 411.08 375.02 413.31 364.94 412.16 C 356.8 411.23 349.33 408.19 343.9 403.6 C 337.99 398.6 335.02 392.06 335.75 385.67 C 337.21 372.86 352.32 364.42 370.15 366.45 C 380.25 367.6 389.12 371.94 394.41 378.23 L 800.59 418.32 C 800.62 418.32 800.66 418.32 800.69 418.33 L 891.27 427.27 C 897.11 427.85 902.36 430.68 906.05 435.25 C 909.74 439.82 911.4 445.54 910.73 451.38 C 909.51 462.35 900.23 470.64 889.18 470.64 z" fill="#000000"/>
</svg>