<svg xmlns="http://www.w3.org/2000/svg" viewBox="5.95463 6.1001 53.11 49.83">
  <path d="M 10.472 50.378 C 10.604 50.49 10.74 50.604 10.873 50.717 C 10.468 51.424 9.789 52.917 10.713999999999999 53.692 L 10.706 53.703 C 10.721 53.714000000000006 10.737 53.717000000000006 10.751999999999999 53.727000000000004 C 10.758999999999999 53.732000000000006 10.764 53.739000000000004 10.770999999999999 53.74400000000001 L 10.95 53.84 L 10.953999999999999 53.833000000000006 C 11.102999999999998 53.898 11.257 53.940000000000005 11.414 53.940000000000005 C 12.181 53.940000000000005 12.995 53.258 13.472999999999999 52.778000000000006 C 14.864999999999998 53.788000000000004 16.113999999999997 54.51500000000001 17.343999999999998 55.007000000000005 C 18.88 55.62200000000001 20.252999999999997 55.931000000000004 21.455999999999996 55.931000000000004 C 22.618999999999996 55.93000000000001 23.621999999999996 55.64300000000001 24.456999999999997 55.06700000000001 C 26.993 53.31900000000001 26.958999999999996 49.604000000000006 26.948999999999998 49.37500000000001 C 26.723 47.99700000000001 28.682 47.55700000000001 28.766 47.53900000000001 C 28.983999999999998 47.49100000000001 29.145 47.30600000000001 29.159999999999997 47.08400000000001 C 29.175999999999995 46.86100000000001 29.041999999999998 46.65600000000001 28.832999999999995 46.58000000000001 C 28.137999999999995 46.32700000000001 27.714999999999996 45.930000000000014 27.539999999999996 45.36500000000001 C 27.081999999999997 43.88600000000001 28.422999999999995 41.55100000000001 28.913999999999994 40.84700000000001 C 32.94799999999999 37.04600000000001 35.25299999999999 39.30500000000001 35.34799999999999 39.400000000000006 C 35.50099999999999 39.56100000000001 35.742999999999995 39.60000000000001 35.937999999999995 39.50000000000001 C 36.135 39.39800000000001 36.242 39.18000000000001 36.20099999999999 38.96200000000001 C 35.965999999999994 37.72800000000001 37.263999999999996 35.80300000000001 37.782999999999994 35.16600000000001 C 42.212999999999994 29.769000000000013 37.541999999999994 24.476000000000013 36.20199999999999 23.14800000000001 L 43.43099999999999 13.56500000000001 C 43.43099999999999 13.56500000000001 43.43099999999999 13.56400000000001 43.43199999999999 13.56400000000001 L 44.935999999999986 11.56900000000001 C 44.969999999999985 11.52400000000001 44.978999999999985 11.468000000000009 44.996999999999986 11.41600000000001 C 45.371999999999986 11.645000000000008 45.80699999999999 11.82900000000001 46.243999999999986 11.82900000000001 C 46.268999999999984 11.82900000000001 46.29399999999998 11.82800000000001 46.31899999999999 11.827000000000009 C 46.76299999999999 11.805000000000009 47.14999999999999 11.594000000000008 47.43499999999999 11.215000000000009 C 48.02699999999999 10.431000000000008 47.91699999999999 9.78700000000001 47.72099999999999 9.386000000000008 C 47.65899999999999 9.258000000000008 47.60699999999999 9.160000000000007 47.56399999999999 9.081000000000008 C 47.532999999999994 9.023000000000009 47.50599999999999 8.982000000000008 47.49999999999999 9.016000000000009 C 47.50899999999999 8.972000000000008 47.56999999999999 8.821000000000009 47.63099999999999 8.67500000000001 L 47.66899999999999 8.583000000000009 C 48.04099999999999 7.684000000000009 47.96299999999999 6.983000000000009 47.49099999999999 6.4700000000000095 L 47.52299999999999 6.42800000000001 C 47.46499999999999 6.38500000000001 47.40599999999999 6.35200000000001 47.34699999999999 6.31700000000001 C 47.31899999999999 6.29300000000001 47.304999999999986 6.26300000000001 47.274999999999984 6.24000000000001 L 47.25799999999998 6.26100000000001 C 46.63399999999998 5.94300000000001 45.92099999999998 6.09100000000001 45.08399999999998 6.75300000000001 C 44.95999999999998 6.85100000000001 44.83199999999998 6.95300000000001 44.86199999999998 6.95900000000001 C 44.82199999999998 6.95600000000001 44.77599999999998 6.94300000000001 44.71199999999998 6.92900000000001 C 44.62399999999998 6.9090000000000105 44.51499999999998 6.88600000000001 44.37399999999998 6.86100000000001 C 43.93599999999998 6.78300000000001 43.28599999999998 6.85500000000001 42.69399999999998 7.63900000000001 C 42.41099999999998 8.01500000000001 42.30799999999998 8.43800000000001 42.39899999999998 8.86300000000001 C 42.48399999999998 9.26100000000001 42.75299999999998 9.64900000000001 43.16399999999998 10.02500000000001 C 43.11699999999998 10.05600000000001 43.07299999999998 10.09400000000001 43.03899999999998 10.14000000000001 L 41.53899999999998 12.12900000000001 L 33.77099999999998 21.31300000000001 C 32.14999999999998 20.399000000000008 25.75199999999998 17.326000000000008 21.765999999999977 23.085000000000008 C 21.296999999999976 23.76000000000001 19.805999999999976 25.538000000000007 18.549999999999976 25.65000000000001 C 18.328999999999976 25.67000000000001 18.147999999999975 25.83300000000001 18.104999999999976 26.050000000000008 C 18.060999999999975 26.267000000000007 18.166999999999977 26.488000000000007 18.362999999999975 26.591000000000008 C 18.391999999999975 26.607000000000006 21.306999999999974 28.209000000000007 18.793999999999976 33.09300000000001 C 18.206999999999976 33.83300000000001 16.358999999999977 35.73600000000001 14.814999999999976 35.73600000000001 C 14.801999999999977 35.73600000000001 14.788999999999977 35.73600000000001 14.774999999999977 35.73600000000001 C 14.182999999999977 35.72300000000001 13.683999999999978 35.42500000000001 13.250999999999976 34.826000000000015 C 13.118999999999977 34.646000000000015 12.885999999999976 34.57400000000001 12.675999999999977 34.65000000000001 C 12.466999999999977 34.72600000000001 12.331999999999978 34.93100000000001 12.346999999999976 35.15400000000001 C 12.352999999999977 35.23900000000001 12.468999999999976 37.24600000000001 10.992999999999977 37.42500000000001 C 10.574999999999978 37.552000000000014 10.149999999999977 37.72100000000001 9.726999999999977 37.927000000000014 C 8.504999999999978 38.52600000000001 6.398999999999978 39.86100000000001 6.0149999999999775 42.076000000000015 C 5.808999999999977 43.26300000000001 6.128999999999977 44.55300000000001 6.993999999999978 46.01900000000001 C 8.047 47.797 9.314 49.387 10.472 50.378 z M 11.308 52.903 C 11.054 52.711999999999996 11.427 51.674 11.868 50.993 L 15.018 47.284 C 15.048 47.25 15.073 47.211 15.091000000000001 47.17 L 16.612000000000002 43.857 C 16.818 44.125 17.112000000000002 44.407 17.513 44.675 C 17.882 44.988 18.235000000000003 45.193999999999996 18.548000000000002 45.318999999999996 L 15.782000000000002 47.690999999999995 C 15.747000000000002 47.721 15.717000000000002 47.754999999999995 15.691000000000003 47.794 L 13.027000000000003 51.794 C 12.458 52.453 11.57 53.1 11.308 52.903 z M 21.201 41.37 C 20.147000000000002 41.335 19.556 40.393 19.343 39.918 L 42.167 12.93 C 42.387 12.949 42.471000000000004 13.033999999999999 42.505 13.126999999999999 L 21.201 41.37 z M 43.491 8.239 C 43.836999999999996 7.780000000000001 44.097 7.828000000000001 44.198 7.843000000000001 C 44.321 7.865000000000001 44.417 7.886000000000001 44.494 7.9030000000000005 C 45.054 8.028 45.206 7.929 45.78 7.474 C 46.289 7.071 46.571 7.053 46.779 7.147 C 46.926 7.323 46.984 7.613 46.704 8.291 C 46.462 8.877 46.409 9.051 46.682 9.555 C 46.719 9.624 46.766000000000005 9.709999999999999 46.821000000000005 9.822 C 46.865 9.911999999999999 46.982000000000006 10.152 46.63400000000001 10.610999999999999 C 46.49700000000001 10.791999999999998 46.367000000000004 10.821 46.269000000000005 10.825999999999999 C 45.81700000000001 10.852999999999998 45.153000000000006 10.352999999999998 44.764 9.969999999999999 L 44.777 9.947 C 44.744 9.927999999999999 44.718 9.908999999999999 44.685 9.891 C 44.675000000000004 9.88 44.663000000000004 9.868 44.653000000000006 9.858 L 44.644000000000005 9.866 C 43.926 9.446 43.449 9 43.375 8.652 C 43.355 8.558 43.35 8.426 43.491 8.239 z M 43.706 10.912 C 43.817 10.91 43.953 10.926 44.006 10.973 C 44.025 10.991000000000001 44.037 11.033000000000001 44.041 11.091000000000001 L 43.122 12.309000000000001 C 43.032 12.224 42.919 12.166 42.805 12.108 L 43.706 10.912 z M 6.998 42.243 C 7.307 40.466 9.115 39.337 10.164 38.822 C 10.539 38.639 10.915 38.49 11.193999999999999 38.397000000000006 C 12.492999999999999 38.246 13.059 37.211000000000006 13.258999999999999 36.242000000000004 C 13.704999999999998 36.556000000000004 14.203999999999999 36.721000000000004 14.750999999999998 36.732000000000006 C 14.771999999999998 36.733000000000004 14.791999999999998 36.733000000000004 14.811999999999998 36.733000000000004 C 17.153 36.733000000000004 19.476999999999997 33.836000000000006 19.627 33.63 C 21.71 29.6 20.552999999999997 27.365000000000002 19.624 26.361000000000004 C 21.2 25.627000000000002 22.52 23.747000000000003 22.586 23.652000000000005 C 26.026 18.677000000000007 31.461999999999996 21.160000000000004 33.114999999999995 22.083000000000006 L 18.387 39.499 C 18.276 39.631 18.241 39.81 18.292 39.974000000000004 C 18.323 40.072 19.077 42.370000000000005 21.183 42.370000000000005 C 21.292 42.370000000000005 21.405 42.364000000000004 21.522 42.349000000000004 C 21.657999999999998 42.333000000000006 21.781 42.263000000000005 21.863 42.154 L 35.597 23.947000000000003 C 36.910000000000004 25.246000000000002 40.872 29.822000000000003 37.008 34.531000000000006 C 36.934000000000005 34.62100000000001 35.488 36.40800000000001 35.217000000000006 38.126000000000005 C 33.992000000000004 37.514 31.513000000000005 37.028000000000006 28.164000000000005 40.191 C 28.070000000000004 40.321000000000005 25.886000000000006 43.403000000000006 26.584000000000003 45.658 C 26.745000000000005 46.18 27.040000000000003 46.614000000000004 27.464000000000002 46.956 C 26.587000000000003 47.411 25.748 48.225 25.955000000000002 49.463 C 25.956000000000003 49.496 25.979000000000003 52.806 23.885 54.246 C 22.48 55.212 20.404000000000003 55.155 17.714000000000002 54.079 C 16.572000000000003 53.621 15.401000000000002 52.94 14.093000000000002 51.993 L 16.487000000000002 48.405 L 19.98 45.409 C 20.124 45.286 20.185 45.092999999999996 20.14 44.909 C 20.095 44.726 19.951 44.583999999999996 19.766000000000002 44.542 C 19.029000000000003 44.373000000000005 18.511000000000003 44.134 18.121000000000002 43.884 C 17.769000000000002 43.578 17.392000000000003 43.144 17.023000000000003 42.474000000000004 C 16.932000000000002 42.309000000000005 16.750000000000004 42.219 16.567000000000004 42.215 C 16.379000000000005 42.222 16.210000000000004 42.335 16.131000000000004 42.506 L 14.210000000000004 46.69 L 11.474000000000004 49.916999999999994 C 11.357000000000003 49.818 11.237000000000004 49.717999999999996 11.121000000000004 49.61899999999999 C 10.044000000000004 48.69599999999999 8.852000000000004 47.19799999999999 7.852000000000004 45.50899999999999 C 7.114 44.255 6.835 43.188 6.998 42.243 zM 23.702 45.281 C 23.856 45.373 24.032 45.421 24.21 45.421 C 24.565 45.421 24.897000000000002 45.23 25.071 44.926 C 25.207 44.697 25.244 44.428000000000004 25.177000000000003 44.169000000000004 C 25.110000000000003 43.912000000000006 24.947000000000003 43.69500000000001 24.718000000000004 43.56100000000001 C 24.540000000000003 43.45600000000001 24.337000000000003 43.43300000000001 24.138000000000005 43.45100000000001 C 24.110000000000007 43.35900000000001 24.083000000000006 43.26400000000001 24.081000000000007 43.15200000000001 C 24.070000000000007 42.537000000000006 24.557000000000006 41.80700000000001 25.475000000000005 41.05200000000001 C 25.841000000000005 40.77000000000001 29.024000000000004 38.230000000000004 27.965000000000003 36.19800000000001 C 27.837000000000003 35.95300000000001 27.534000000000002 35.86000000000001 27.290000000000003 35.986000000000004 C 27.046000000000003 36.114000000000004 26.950000000000003 36.416000000000004 27.078000000000003 36.661 C 27.649000000000004 37.758 25.619000000000003 39.676 24.851000000000003 40.269 C 23.649 41.257 23.053000000000004 42.241 23.081000000000003 43.193999999999996 C 23.091000000000005 43.532 23.183000000000003 43.81399999999999 23.299000000000003 44.05 C 23.121 44.502 23.272 45.029 23.702 45.281 zM 15.919 39.167 C 16.145 39.167 16.356 39.074 16.531 38.935 C 16.648 38.956 16.762999999999998 38.980000000000004 16.895 38.980000000000004 C 17.056 38.980000000000004 17.227999999999998 38.961000000000006 17.408 38.916000000000004 C 18.332 38.682 19.115000000000002 37.839000000000006 19.740000000000002 36.397000000000006 C 20.094 35.508 21.377000000000002 33.03600000000001 22.593000000000004 33.278000000000006 C 22.858000000000004 33.331 23.127000000000002 33.159000000000006 23.184000000000005 32.888000000000005 C 23.239000000000004 32.617000000000004 23.065000000000005 32.35300000000001 22.794000000000004 32.298 C 20.543000000000003 31.832 18.982000000000003 35.596000000000004 18.816000000000003 36.012 C 18.337000000000003 37.116 17.769000000000002 37.784 17.174000000000003 37.943 C 17.070000000000004 37.971 16.975 37.971 16.882 37.971 C 16.84 37.770999999999994 16.758000000000003 37.583999999999996 16.610000000000003 37.446 C 16.225 37.079 15.561000000000003 37.098 15.199000000000003 37.476 C 15.012000000000004 37.67 14.914000000000003 37.924 14.920000000000003 38.193 C 14.927000000000003 38.461 15.037000000000004 38.708999999999996 15.230000000000004 38.891 C 15.416 39.069 15.661 39.167 15.919 39.167 zM 39.375 13.056 C 39.529 13.145999999999999 39.705 13.193999999999999 39.883 13.193999999999999 C 40.237 13.193999999999999 40.569 13.002999999999998 40.744 12.699 C 40.88 12.47 40.917 12.2 40.85 11.942 C 40.783 11.684000000000001 40.619 11.466000000000001 40.391 11.334 C 39.933 11.059999999999999 39.287 11.227 39.019 11.689 C 38.745 12.164 38.903 12.776 39.375 13.056 zM 37.67 14.953 C 37.824000000000005 15.043 38 15.091 38.178000000000004 15.091 C 38.532000000000004 15.091 38.862 14.901 39.039 14.596 C 39.175000000000004 14.366 39.212 14.097 39.144 13.839 C 39.07599999999999 13.581000000000001 38.913 13.364 38.687 13.232000000000001 C 38.229 12.957 37.585 13.123000000000001 37.312999999999995 13.586 C 37.038 14.062 37.197 14.675 37.67 14.953 zM 42.908 17.263 C 43.315 17.263 43.679 17.019000000000002 43.832 16.642000000000003 C 43.935 16.395000000000003 43.934 16.123000000000005 43.83 15.877000000000002 C 43.726 15.631 43.533 15.439000000000002 43.291 15.340000000000002 C 42.791 15.128000000000002 42.186 15.383000000000001 41.980999999999995 15.885000000000002 C 41.77499999999999 16.394000000000002 42.019999999999996 16.978 42.525999999999996 17.187 C 42.648 17.238 42.776 17.263 42.908 17.263 zM 41.87 17.46 C 41.369 17.249000000000002 40.763999999999996 17.503 40.561 18.004 C 40.355 18.512 40.599 19.097 41.106 19.307000000000002 C 41.228 19.357000000000003 41.356 19.382 41.487 19.382 C 41.896 19.382 42.259 19.137 42.410000000000004 18.762 C 42.513000000000005 18.515 42.512 18.243000000000002 42.409000000000006 17.997 C 42.307 17.751 42.114 17.56 41.87 17.46 zM 57.729 18.625 C 57.510999999999996 18.472 57.21 18.517 57.045 18.729 L 33.165000000000006 49.742000000000004 C 33.163000000000004 49.745000000000005 33.160000000000004 49.746 33.15800000000001 49.748000000000005 C 33.156000000000006 49.751000000000005 33.15500000000001 49.754000000000005 33.153000000000006 49.757000000000005 L 31.249000000000006 52.23100000000001 C 31.242000000000004 52.23800000000001 31.235000000000007 52.24600000000001 31.229000000000006 52.25300000000001 C 31.213000000000008 52.272000000000006 31.199000000000005 52.291000000000004 31.187000000000005 52.312000000000005 L 29.611000000000004 54.358000000000004 C 29.443000000000005 54.577000000000005 29.484000000000005 54.89 29.703000000000003 55.059000000000005 C 29.794000000000004 55.12800000000001 29.901000000000003 55.163000000000004 30.008000000000003 55.163000000000004 C 30.157000000000004 55.163000000000004 30.306 55.096000000000004 30.404000000000003 54.968 L 31.692000000000004 53.295 L 33.050000000000004 54.437000000000005 C 33.154 54.525000000000006 33.284000000000006 54.57000000000001 33.425000000000004 54.551 C 33.56 54.536 33.684000000000005 54.467 33.767 54.36 L 35.739000000000004 51.81 C 35.74 51.81 35.74 51.81 35.74100000000001 51.809000000000005 C 35.74200000000001 51.80800000000001 35.742000000000004 51.807 35.742000000000004 51.806000000000004 L 58.68000000000001 22.150000000000006 C 59.141 21.485 59.534 19.895 57.729 18.625 z M 33.295 53.335 L 32.303000000000004 52.501 L 33.63700000000001 50.769 L 34.65400000000001 51.58 L 33.295 53.335 z M 57.874 21.557 L 35.265 50.788 L 34.246 49.976 L 57.524 19.746 C 58.422 20.608 57.97 21.412 57.874 21.557 z" fill="#000000"/>
</svg>