<svg xmlns="http://www.w3.org/2000/svg" viewBox="-0.1 19.993 100.2 60.01">
  <path d="M 94.184 20.093 L 5.817 20.093 C 2.609 20.093 0 22.702 0 25.91 L 0 74.09 C 0 77.297 2.609 79.906 5.817 79.906 L 94.184 79.906 C 97.39099999999999 79.906 100 77.29700000000001 100 74.09 L 100 25.91 C 100 22.702 97.391 20.093 94.184 20.093 z M 5.817 23.993 L 94.184 23.993 C 95.241 23.993 96.1 24.852999999999998 96.1 25.91 L 96.1 47.4 L 3.9 47.4 L 3.9 25.91 C 3.9 24.854 4.76 23.993 5.817 23.993 z M 14.135 66.465 C 14.865 66.465 15.458 65.872 15.458 65.143 L 15.458 53.979 L 20.476 53.979 L 20.476 65.143 C 20.476 65.872 21.067999999999998 66.465 21.799 66.465 L 22.331 66.465 L 22.331 76.006 L 13.603 76.006 L 13.603 66.465 L 14.135 66.465 z M 24.281 66.465 L 24.813 66.465 C 25.543 66.465 26.136 65.872 26.136 65.143 L 26.136 53.979 L 33.009 53.979 L 33.009 76.006 L 24.281 76.006 L 24.281 66.465 z M 34.958 53.979 L 41.830999999999996 53.979 L 41.830999999999996 65.143 C 41.830999999999996 65.872 42.422999999999995 66.465 43.153999999999996 66.465 L 43.68599999999999 66.465 L 43.68599999999999 76.006 L 34.95799999999999 76.006 L 34.95799999999999 53.979 z M 45.636 66.465 L 46.168000000000006 66.465 C 46.898 66.465 47.49100000000001 65.872 47.49100000000001 65.143 L 47.49100000000001 53.979 L 52.50900000000001 53.979 L 52.50900000000001 65.143 C 52.50900000000001 65.872 53.102000000000004 66.465 53.83200000000001 66.465 L 54.36300000000001 66.465 L 54.36300000000001 76.006 L 45.63600000000001 76.006 L 45.63600000000001 66.465 z M 56.314 66.465 L 56.845 66.465 C 57.574999999999996 66.465 58.168 65.872 58.168 65.143 L 58.168 53.979 L 65.03999999999999 53.979 L 65.03999999999999 76.006 L 56.31299999999999 76.006 L 56.31299999999999 66.465 z M 66.992 53.979 L 73.864 53.979 L 73.864 65.143 C 73.864 65.872 74.45700000000001 66.465 75.187 66.465 L 75.718 66.465 L 75.718 76.006 L 66.991 76.006 L 66.991 53.979 z M 77.67 66.465 L 78.20100000000001 66.465 C 78.93100000000001 66.465 79.524 65.872 79.524 65.143 L 79.524 53.979 L 84.542 53.979 L 84.542 65.143 C 84.542 65.872 85.135 66.465 85.865 66.465 L 86.396 66.465 L 86.396 76.006 L 77.67 76.006 L 77.67 66.465 z M 3.9 52.028 L 3.9 49.35 L 96.1 49.35 L 96.1 52.029 L 3.9 52.029 z M 3.9 74.09 L 3.9 53.979 L 9.798 53.979 L 9.798 65.143 C 9.798 65.872 10.39 66.465 11.120000000000001 66.465 L 11.652000000000001 66.465 L 11.652000000000001 76.006 L 5.817 76.006 C 4.76 76.006 3.9 75.146 3.9 74.09 z M 94.184 76.006 L 88.348 76.006 L 88.348 66.465 L 88.879 66.465 C 89.60900000000001 66.465 90.20100000000001 65.872 90.20100000000001 65.143 L 90.20100000000001 53.979 L 96.1 53.979 L 96.1 74.09 C 96.1 75.146 95.24 76.006 94.184 76.006 z M 63.187 39.955 L 63.187 37.064 C 63.187 36.334 63.78 35.742 64.50999999999999 35.742 L 65.041 35.742 L 65.041 26.876999999999995 L 66.99199999999999 26.876999999999995 L 66.99199999999999 35.742 L 67.523 35.742 C 68.253 35.742 68.84599999999999 36.333999999999996 68.84599999999999 37.064 L 68.84599999999999 39.955 C 68.84599999999999 40.684999999999995 68.25299999999999 41.278 67.523 41.278 L 66.99199999999999 41.278 L 66.99199999999999 44.8 L 65.041 44.8 L 65.041 41.278 L 64.51 41.278 C 63.779 41.278 63.187 40.686 63.187 39.955 z M 74.232 34.42 L 74.232 31.528000000000002 C 74.232 30.798000000000002 74.824 30.205000000000002 75.554 30.205000000000002 L 76.087 30.205000000000002 L 76.087 26.877000000000002 L 78.036 26.877000000000002 L 78.036 30.205000000000002 L 78.569 30.205000000000002 C 79.299 30.205000000000002 79.891 30.798000000000002 79.891 31.528000000000002 L 79.891 34.42 C 79.891 35.15 79.299 35.742000000000004 78.569 35.742000000000004 L 78.036 35.742000000000004 L 78.036 44.801 L 76.087 44.801 L 76.087 35.742000000000004 L 75.554 35.742000000000004 C 74.824 35.742 74.232 35.15 74.232 34.42 z M 85.278 37.188 L 85.278 34.297000000000004 C 85.278 33.56700000000001 85.87100000000001 32.974000000000004 86.601 32.974000000000004 L 87.132 32.974000000000004 L 87.132 26.877000000000002 L 89.083 26.877000000000002 L 89.083 32.974000000000004 L 89.614 32.974000000000004 C 90.34400000000001 32.974000000000004 90.937 33.56700000000001 90.937 34.297000000000004 L 90.937 37.188 C 90.937 37.918 90.345 38.510000000000005 89.615 38.510000000000005 L 89.083 38.510000000000005 L 89.083 44.801 L 87.132 44.801 L 87.132 38.51 L 86.601 38.51 C 85.871 38.51 85.278 37.918 85.278 37.188 z M 10.89 39.847 L 15.644 39.847 C 16.784 39.847 17.711 38.92 17.711 37.78 L 17.711 33.027 C 17.711 31.887 16.784 30.96 15.643999999999998 30.96 L 10.89 30.96 C 9.75 30.96 8.824000000000002 31.888 8.824000000000002 33.027 L 8.824000000000002 37.78 C 8.823 38.92 9.75 39.847 10.89 39.847 z M 10.773 33.026 C 10.773 32.963 10.825 32.910000000000004 10.889 32.910000000000004 L 15.642999999999999 32.910000000000004 C 15.706999999999999 32.910000000000004 15.758999999999999 32.963 15.758999999999999 33.026 L 15.758999999999999 37.779 C 15.758999999999999 37.843 15.706999999999999 37.896 15.642999999999999 37.896 L 10.89 37.896 C 10.826 37.896 10.774000000000001 37.843 10.774000000000001 37.779 L 10.774000000000001 33.026 z M 22.982 39.847 L 27.735999999999997 39.847 C 28.875999999999998 39.847 29.801999999999996 38.92 29.801999999999996 37.78 L 29.801999999999996 33.027 C 29.801999999999996 31.887 28.874999999999996 30.96 27.735999999999997 30.96 L 22.982 30.96 C 21.842 30.96 20.915 31.888 20.915 33.027 L 20.915 37.78 C 20.916 38.92 21.843 39.847 22.982 39.847 z M 22.866 33.026 C 22.866 32.963 22.918 32.910000000000004 22.983 32.910000000000004 L 27.737000000000002 32.910000000000004 C 27.801000000000002 32.910000000000004 27.853 32.963 27.853 33.026 L 27.853 37.779 C 27.853 37.843 27.801000000000002 37.896 27.737000000000002 37.896 L 22.983000000000004 37.896 C 22.919000000000004 37.896 22.866000000000003 37.843 22.866000000000003 37.779 L 22.866000000000003 33.026 z M 35.075 39.847 L 39.828 39.847 C 40.968 39.847 41.895 38.92 41.895 37.78 L 41.895 33.027 C 41.895 31.887 40.968 30.96 39.828 30.96 L 35.075 30.96 C 33.935 30.96 33.008 31.888 33.008 33.027 L 33.008 37.78 C 33.008 38.92 33.936 39.847 35.075 39.847 z M 34.958 33.026 C 34.958 32.963 35.01 32.910000000000004 35.074999999999996 32.910000000000004 L 39.827999999999996 32.910000000000004 C 39.891999999999996 32.910000000000004 39.94499999999999 32.963 39.94499999999999 33.026 L 39.94499999999999 37.779 C 39.94499999999999 37.843 39.892999999999994 37.896 39.827999999999996 37.896 L 35.074999999999996 37.896 C 35.010999999999996 37.896 34.958 37.843 34.958 37.779 L 34.958 33.026 z" fill="#000000"/>
</svg>